<?xml version="1.0" encoding="UTF-8"?>
<svg id="_Слой_2" data-name="Слой 2" xmlns="http://www.w3.org/2000/svg" viewBox="0 0 293.33 51.09">
  <defs>
    <style>
      .cls-1 {
        fill: #0a6fb7;
      }
    </style>
  </defs>
  <g id="_Слой_1-2" data-name="Слой 1">
    <g>
      <path class="cls-1" d="m54.54,33.04c-.03.84-.34,1.53-.65,2.22-.29.63-.53,1.29-.87,1.9-.67,1.24-1.38,2.44-2.27,3.54-.72.88-1.44,1.76-2.24,2.57-.82.82-1.74,1.5-2.62,2.24-.73.62-1.54,1.1-2.35,1.61-.58.37-1.15.74-1.77,1.03-.49.23-.98.49-1.45.68-.25.12-.41.17-.73.3-.75.27-1.39.52-2.08.73-.88.24-1.71.41-2.56.62-.96.24-1.96.41-2.96.46-1.52.08-3.04.17-4.56.14-.92-.02-1.84-.16-2.75-.29-1.02-.15-2.01-.43-2.99-.72-.87-.26-1.74-.55-2.53-1.03-.26-.16-.56-.24-.84-.37-.95-.44-1.87-.96-2.76-1.51-.38-.23-.73-.52-1.1-.76-.5-.32-.97-.68-1.42-1.05-1.14-.92-2.19-1.94-3.19-3.01-.65-.7-1.21-1.47-1.79-2.22-.94-1.21-1.67-2.56-2.34-3.94-.64-1.31-1.15-2.66-1.61-4.03-.2-.6-.36-1.21-.52-1.81-.08-.3-.15-.64-.23-.95-.07-.31-.17-.6-.17-.92,0-.14-.06-.18-.18-.19-1.39-.16-2.09-1.13-2.63-2.27C.07,25.35-.02,24.62,0,23.89c.07-2.06,1.05-3.54,2.92-4.42.56-.26,1.12-.53,1.71-.67.67-.16,1.35-.33,2.02-.49.65-.16,1.29-.36,1.94-.47.57-.1,1.13-.24,1.7-.31.93-.12,1.86-.24,2.79-.3,1.12-.07,2.23-.03,3.34.13.64.09,1.28.11,1.92.22.94.17,1.88.34,2.79.61,1.59.46,3.14,1.03,4.62,1.78.98.5,1.89,1.1,2.68,1.86.95.92,1.89,1.87,2.44,3.11.32.72.54,1.48.66,2.25.17,1.04.44,2.03,1.18,2.83.46.49,1.07.74,1.69.95,2.36.8,4.76.71,7.15.25,1.48-.28,2.96-.57,4.39-1.08.97-.34,1.93-.68,2.86-1.11.71-.33,1.36-.77,2.05-1.11.79-.39,1.46-.9,2.09-1.49.41-.39.64-.85.6-1.45-.04-.7.06-1.42-.07-2.11-.13-.7-.2-1.4-.39-2.09-.24-.86-.5-1.7-.78-2.55-.44-1.34-1.06-2.6-1.76-3.83-.14-.25-.32-.48-.38-.76-.03-.14-.17-.26-.33-.27-.14-.02-.21.11-.27.23-.27.58-.72,1-1.22,1.37-.24.18-.24.38-.17.6.27.86.57,1.7.81,2.57.18.67.44,1.34.54,2.04.08.59.11.41.19,1.34.07.72.09,1.53.12,2.49.04.86.04,1.65.05,2.48,0,.21-.07.34-.25.45-.55.35-1.16.58-1.77.85-.1-.11-.05-.24-.05-.36.05-1.32-.01-2.63-.17-3.94-.12-.98-.12-1.99-.43-2.92-.23-.69-.27-1.41-.54-2.09-.22-.53-.34-1.11-.56-1.65-.1-.25-.21-.21-.39-.1-1.03.66-2.12,1.19-3.28,1.57-.29.1-.6.17-.9.24-.17.04-.18.05-.16.29,0,.06,0,.13.01.19.19,2.24.38,4.49.27,6.74-.03.56-.09,1.12-.12,1.69-.03.51-.05.92-.14,1.41-.06.3-.05.42-.12.64,0,.12-.09.08-.15.08-.68,0-1.35.17-2.01.29-.21.04-.25-.02-.2-.21.21-.9.16-1.83.25-2.75.16-1.67.07-3.34.04-5.01-.02-.84-.16-1.67-.24-2.5-.02-.21-.15-.2-.3-.18-1.1.21-2.23.21-3.34.19-1.6-.03-3.18-.22-4.76-.52-1.53-.29-3.02-.7-4.5-1.13-.72-.21-1.43-.47-2.15-.69-.67-.2-1.34-.4-2.01-.57-.44-.11-.9-.14-1.34-.25-.29-.07-.55-.2-.84-.27-2.35-.52-4.72-.72-7.11-.53-1.74.14-3.49.3-5.18.79-.79.23-1.57.51-2.37.77.04-.95.53-1.72.92-2.53.52-1.07,1.17-2.07,1.85-3.04.28-.4.62-.76.92-1.14.49-.64,1.02-1.24,1.57-1.83.58-.62,1.21-1.19,1.82-1.77.46-.43.9-.89,1.43-1.24.72-.48,1.39-1.02,2.14-1.46,1.02-.61,2.09-1.13,3.13-1.7.8-.43,1.67-.67,2.51-1,1.19-.47,2.44-.73,3.69-.96,1.92-.34,3.85-.45,5.8-.35,1.26.07,2.51.22,3.76.45,2.48.47,4.86,1.25,7.1,2.42,1.12.58,2.21,1.23,3.21,2.02.41.33.82.6,1.28.96.65.48,1.18,1,1.72,1.56,1.04,1.08,2.01,2.23,2.92,3.42.76.99,1.4,2.04,2,3.14.42.77.65,1.6.97,2.4.35.86.63,1.64.88,2.62.15.59.24,1.14.36,1.71.12.56.21,1.13.22,1.71,0,.22.08.28.28.28,1.11,0,1.87.6,2.5,1.45.67.9.79,1.92.64,2.98-.05.36-.26.71-.42,1.05-.3.6-.78,1.06-1.26,1.51-.3.28-.66.49-1.01.7-.51.31-1.04.61-1.56.9-1.35.75-2.76,1.38-4.25,1.79-1.46.4-2.93.72-4.41,1.03-.5.1-1.03.18-1.53.27-.41.07-.81.13-1.22.17-.28.03-.21.02-.36.04-1.31.11-2.51.36-3.81.41-1.26.04-2.53.02-3.79-.19-.95-.16-1.9-.33-2.8-.71-1.35-.57-2.49-1.41-3.44-2.53-.86-1.02-1.13-2.26-1.36-3.52-.33-1.9-1.19-3.48-2.78-4.63-.64-.46-1.29-.89-1.99-1.24-.81-.41-1.68-.67-2.57-.88-.75-.18-1.49-.39-2.25-.48-1.73-.2-3.46-.2-5.17.06-1.18.18-2.36.43-3.47.86-1.16.45-2.28.98-3.12,1.95-.78.9-.97,1.96-.79,3.1.21,1.32.41,2.64.84,3.91.65,1.96,1.46,3.85,2.63,5.57.26.38.27.39.61.12.89-.71,1.79-1.42,2.77-2,.13-.08.14-.15.1-.28-.13-.44-.28-.88-.37-1.32-.16-.76-.36-1.51-.51-2.27-.11-.56-.17-1.13-.32-1.68-.16-.61-.16-1.25-.2-1.88-.06-.96-.11-1.92-.08-2.88,0-.27.07-.38.38-.44.6-.11,1.18-.3,1.76-.48.22-.07.29-.04.29.2,0,.77,0,1.55.06,2.32.04.68.14,1.35.23,2.02.13,1.03.3,2.05.51,3.07.15.75.41,1.47.66,2.2.08.23.24.11.33.09.4-.08.81-.17,1.2-.3.8-.27,1.62-.4,2.45-.52.87-.13,1.74-.24,2.62-.2.08,0,.16.01.24,0,.14-.01.33.15.41,0,.07-.13-.11-.26-.18-.39-.54-.95-.99-1.94-1.33-2.97-.29-.88-.66-1.75-.66-2.7,0-.66.44-1.08,1.1-1.08.64,0,1.25.05,1.85.31.71.31,1.01.88,1.18,1.59.34,1.45.79,2.85,1.51,4.16.86,1.55,2.02,2.83,3.54,3.74,1.25.76,2.6,1.29,4.05,1.63,1.73.41,3.47.58,5.24.5,1.45-.06,2.9-.15,4.34-.3.84-.09,1.67-.25,2.49-.45.65-.16,1.32-.19,1.96-.35,1.37-.35,2.77-.63,4.1-1.14,1.09-.41,2.17-.86,3.18-1.45.06-.03.12-.05.23-.1Zm-17.38-16c.28,0,.55,0,.83,0q.58,0,.38-.52c-.02-.05-.02-.11-.04-.17-.41-1.45-.72-2.92-1.24-4.34-.87-2.38-1.89-4.67-3.46-6.68-.52-.66-.99-1.36-1.68-1.87-.59-.43-1.66-.44-2.23,0-.97.75-1.8,1.63-2.59,2.56-1.17,1.4-2.05,2.96-2.7,4.66-.42,1.11-.63,2.28-.98,3.41-.06.2,0,.28.18.32.34.08.69.16,1.03.26,1.25.37,2.5.74,3.78,1.02.26.06.49.18.75.22.61.1,1.22.22,1.82.37,1.08.25,2.19.42,3.28.57.95.13,1.91.23,2.88.17Zm-14.39,18.58c-.02.9.21,1.91.47,2.9.23.86.51,1.7.81,2.54.5,1.38,1.12,2.69,1.92,3.91.73,1.1,1.57,2.13,2.53,3.05.46.44.97.74,1.63.45.3-.13.58-.3.88-.44.73-.35,1.33-.89,1.86-1.48.62-.68,1.21-1.38,1.72-2.15.4-.59.78-1.18,1.1-1.81.5-.99.9-2.02,1.21-3.09.09-.31-.05-.37-.31-.36-1.6.09-3.17-.2-4.74-.39-1.14-.14-2.25-.48-3.3-.95-1.65-.73-3.12-1.75-4.44-2.98-.16-.15-.33-.22-.56-.2-.82.05-.82.04-.8,1.01Zm-7.45-22.47c.71.03,1.42.02,2.13.06,1.01.05,1.98.26,2.96.47.41.09.43.08.45-.32,0-.1.01-.21.03-.31.22-.98.49-1.94.84-2.88.87-2.32,2.05-4.43,3.84-6.17.26-.25.53-.48.79-.72.06-.05.14-.11.08-.2-.04-.06-.12-.03-.19-.02-.22.03-.43.06-.65.11-1.7.38-3.38.83-4.96,1.57-1.18.55-2.34,1.16-3.38,1.93-1.32.98-2.53,2.09-3.61,3.35-.84.98-1.64,1.98-2.31,3.08-.04.06-.09.11-.06.19.04.09.11.04.18.04,1.29-.04,2.57-.24,3.86-.17Zm25.84,3.1c.19-.05.38-.09.57-.14,1.07-.3,2.04-.84,3-1.38.23-.13.24-.23.15-.46-.57-1.33-1.37-2.52-2.09-3.76-.81-1.38-1.72-2.7-2.74-3.93-.25-.3-.47-.62-.7-.94-.11-.16-.74-.93-.86-.98-.82-.36-1.34-.42-2.18-.73-.07-.03-.16-.1-.22,0-.05.08.02.15.06.22.47.89.95,1.78,1.41,2.67.57,1.09,1.05,2.23,1.49,3.38.73,1.9,1.25,3.87,1.85,5.82.05.15.08.27.27.25Zm5.71,21.26c-.37.02-.76.24-1.19.34-.87.21-1.75.41-2.63.57-.98.17-1.98.28-2.97.41-.15.02-.26.03-.29.22-.16.91-.52,1.76-.84,2.62-.61,1.66-1.54,3.32-2.37,4.72-.04.08-.12.18-.07.24.03.04.15,0,.23-.04.75-.36,1.51-.65,2.24-1.07,1.23-.71,2.35-1.56,3.41-2.48,1.21-1.05,2.27-2.24,3.3-3.47.5-.59.96-1.2,1.34-1.86.03-.05.07-.1.04-.16-.03-.07-.08-.06-.21-.03Zm-26.67-1.85c0-.27-.01-.53,0-.8.01-.21-.06-.3-.28-.27-.42.06-.85.07-1.27.15-.51.1-1.01.34-1.52.35-.49,0-.9.23-1.36.29-.16.02-.22.1-.11.28.19.33.33.68.48,1.03.7,1.63,1.55,3.16,2.64,4.56.84,1.08,1.68,2.17,2.74,3.05.24.2.42.47.67.63.3.19.56.42.85.62.23.16.39.38.63.52.06.04.15.11.21.01.04-.06-.01-.13-.06-.18-.15-.14-.3-.27-.41-.45-.27-.45-.55-.9-.79-1.38-.87-1.67-1.62-3.38-2-5.23-.22-1.05-.43-2.1-.41-3.17Zm2.28,11.45c-.46-.26-.9-.42-1.31-.66-1.22-.73-2.34-1.6-3.28-2.65-.9-1-1.8-2-2.5-3.16-.25-.41-.6-.76-.82-1.19-.42-.84-.81-1.7-1.19-2.55-.08-.19-.12-.21-.31-.08-.88.58-1.68,1.24-2.42,1.98-.16.16-.13.24,0,.39.72.84,1.45,1.66,2.24,2.44.83.81,1.69,1.58,2.61,2.28.62.48,1.33.82,1.99,1.24.63.4,1.24.8,1.95,1.06.68.25,1.34.56,2.02.8.29.1.6.3,1.01.11ZM44.15,8.18c.76,1.12,1.56,2.21,2.17,3.42.22.43.39.89.68,1.3.1.14.17.17.29.04.28-.32.55-.65.85-.95.23-.23.2-.42.03-.66-.58-.82-1.27-1.56-2-2.23-1.06-.96-3.61-3.21-3.34-2.71"/>
      <g>
        <path class="cls-1" d="m100.84,23.4c1.2,1.57,1.8,3.51,1.8,5.8,0,3.25-1.26,5.75-3.79,7.5-2.53,1.75-6.21,2.62-11.05,2.62h-19.19V2.23h18.13c4.52,0,7.99.87,10.41,2.6,2.42,1.73,3.63,4.08,3.63,7.05,0,1.8-.43,3.41-1.3,4.82-.87,1.41-2.08,2.53-3.63,3.34,2.12.67,3.78,1.79,4.98,3.37Zm-23.69-14.71v8.75h8.53c2.12,0,3.73-.37,4.82-1.11,1.09-.74,1.64-1.84,1.64-3.29s-.55-2.54-1.64-3.26c-1.1-.72-2.7-1.09-4.82-1.09h-8.53Zm15.13,23.05c1.15-.74,1.72-1.89,1.72-3.45,0-3.07-2.28-4.61-6.84-4.61h-10.02v9.17h10.02c2.26,0,3.97-.37,5.11-1.11Z"/>
        <path class="cls-1" d="m131.1,13.54c2.37,2.1,3.55,5.27,3.55,9.51v16.27h-7.74v-3.55c-1.55,2.65-4.45,3.97-8.69,3.97-2.19,0-4.09-.37-5.7-1.11-1.61-.74-2.83-1.77-3.68-3.07-.85-1.31-1.27-2.79-1.27-4.45,0-2.65,1-4.73,2.99-6.25,2-1.52,5.08-2.28,9.25-2.28h6.57c0-1.8-.55-3.19-1.64-4.16-1.1-.97-2.74-1.46-4.93-1.46-1.52,0-3.01.24-4.48.72-1.47.48-2.71,1.12-3.74,1.93l-2.97-5.78c1.55-1.09,3.42-1.94,5.59-2.54,2.17-.6,4.41-.9,6.71-.9,4.42,0,7.81,1.05,10.18,3.15Zm-7.05,19.66c1.09-.65,1.87-1.62,2.33-2.89v-2.92h-5.67c-3.39,0-5.09,1.11-5.09,3.34,0,1.06.42,1.9,1.25,2.52.83.62,1.97.93,3.42.93s2.67-.33,3.76-.98Z"/>
        <path class="cls-1" d="m154.87,11.45c1.68-.71,3.61-1.06,5.8-1.06v7.63c-.92-.07-1.54-.11-1.85-.11-2.37,0-4.22.66-5.57,1.99-1.34,1.33-2.01,3.31-2.01,5.96v13.46h-8.27V10.81h7.9v3.76c.99-1.38,2.32-2.42,4-3.13Z"/>
        <path class="cls-1" d="m185.85,37.95c-.81.6-1.81,1.05-2.99,1.35-1.18.3-2.43.45-3.74.45-3.39,0-6.01-.87-7.87-2.6-1.85-1.73-2.78-4.28-2.78-7.63v-11.71h-4.4v-6.36h4.4v-6.94h8.27v6.94h7.1v6.36h-7.1v11.61c0,1.2.31,2.13.93,2.78.62.65,1.49.98,2.62.98,1.31,0,2.42-.35,3.34-1.06l2.23,5.83Z"/>
        <path class="cls-1" d="m218.23,27.4h-21.57c.39,1.77,1.31,3.16,2.76,4.19,1.45,1.03,3.25,1.54,5.41,1.54,1.48,0,2.8-.22,3.95-.66,1.15-.44,2.22-1.14,3.21-2.09l4.4,4.77c-2.69,3.07-6.61,4.61-11.77,4.61-3.22,0-6.06-.63-8.53-1.88s-4.38-3-5.72-5.22c-1.34-2.23-2.01-4.75-2.01-7.58s.66-5.31,1.99-7.55c1.33-2.24,3.14-3.99,5.46-5.25,2.31-1.25,4.9-1.88,7.76-1.88s5.32.6,7.58,1.8c2.26,1.2,4.04,2.92,5.33,5.17,1.29,2.24,1.93,4.85,1.93,7.82,0,.11-.05.85-.16,2.23Zm-19.34-9.17c-1.27,1.06-2.05,2.51-2.33,4.35h14.04c-.28-1.8-1.06-3.24-2.33-4.32-1.27-1.08-2.83-1.62-4.66-1.62s-3.45.53-4.72,1.59Z"/>
        <path class="cls-1" d="m236.65,11.45c1.68-.71,3.61-1.06,5.8-1.06v7.63c-.92-.07-1.54-.11-1.85-.11-2.37,0-4.22.66-5.57,1.99-1.34,1.33-2.01,3.31-2.01,5.96v13.46h-8.27V10.81h7.9v3.76c.99-1.38,2.32-2.42,4-3.13Z"/>
        <path class="cls-1" d="m248.23,0h8.27v39.33h-8.27V0Z"/>
        <path class="cls-1" d="m293.33,10.81l-12.88,30.26c-1.31,3.29-2.92,5.6-4.85,6.94-1.93,1.34-4.25,2.01-6.97,2.01-1.48,0-2.95-.23-4.4-.69-1.45-.46-2.63-1.09-3.55-1.91l3.02-5.88c.64.57,1.37,1.01,2.2,1.33.83.32,1.65.48,2.46.48,1.13,0,2.05-.27,2.76-.82.71-.55,1.34-1.46,1.91-2.73l.11-.26-12.35-28.73h8.53l8,19.34,8.06-19.34h7.95Z"/>
        <path class="cls-1" d="m69.65,49.61c-.52-.53-.78-1.3-.78-2.3v-3.98h1v3.94c0,1.5.66,2.25,1.97,2.25.64,0,1.13-.19,1.47-.56s.51-.93.51-1.69v-3.94h.97v3.98c0,1.01-.26,1.77-.78,2.3-.52.53-1.25.79-2.18.79s-1.66-.27-2.18-.8Z"/>
        <path class="cls-1" d="m82.86,43.33v7h-.82l-4.2-5.22v5.22h-1v-7h.82l4.2,5.22v-5.22h1Z"/>
        <path class="cls-1" d="m84.96,43.33h1v6.13h3.79v.87h-4.79v-7Z"/>
        <path class="cls-1" d="m92.02,49.94c-.57-.31-1.01-.74-1.33-1.29s-.48-1.16-.48-1.83.16-1.28.48-1.83.77-.97,1.33-1.29c.57-.31,1.2-.46,1.91-.46s1.33.16,1.9.46c.57.31,1.01.74,1.33,1.28.32.54.48,1.16.48,1.83s-.16,1.29-.48,1.83c-.32.54-.76.97-1.33,1.28-.57.31-1.2.46-1.9.46s-1.34-.16-1.91-.46Zm3.29-.78c.41-.23.73-.55.97-.96.24-.41.35-.87.35-1.38s-.12-.96-.35-1.38c-.24-.41-.56-.73-.97-.96s-.87-.35-1.38-.35-.98.12-1.39.35c-.42.23-.74.55-.98.96s-.35.87-.35,1.38.12.96.35,1.38.56.73.98.96c.42.23.88.35,1.39.35s.97-.12,1.38-.35Z"/>
        <path class="cls-1" d="m100.4,49.94c-.56-.31-1-.74-1.33-1.28-.32-.54-.48-1.16-.48-1.83s.16-1.29.48-1.83.76-.97,1.33-1.28c.57-.31,1.2-.46,1.9-.46.55,0,1.05.09,1.5.28.45.18.84.46,1.16.81l-.65.63c-.53-.55-1.18-.83-1.97-.83-.52,0-.99.12-1.41.35s-.75.55-.99.96-.35.87-.35,1.38.12.96.35,1.38.57.73.99.96.89.35,1.41.35c.78,0,1.44-.28,1.97-.84l.65.63c-.32.36-.71.63-1.17.82-.46.19-.96.28-1.5.28-.7,0-1.33-.16-1.89-.46Z"/>
        <path class="cls-1" d="m108.68,47.22l-1.28,1.3v1.81h-1v-7h1v3.91l3.8-3.91h1.14l-2.99,3.15,3.18,3.85h-1.17l-2.68-3.11Z"/>
        <path class="cls-1" d="m117.67,44.2h-2.4v-.87h5.79v.87h-2.4v6.13h-.99v-6.13Z"/>
        <path class="cls-1" d="m128.17,43.33v7h-1v-3.12h-4.02v3.12h-1v-7h1v3.01h4.02v-3.01h1Z"/>
        <path class="cls-1" d="m135.35,49.46v.87h-5.08v-7h4.94v.87h-3.94v2.15h3.51v.85h-3.51v2.26h4.08Z"/>
        <path class="cls-1" d="m144.53,43.98c.52.43.78,1.03.78,1.79s-.26,1.36-.78,1.79c-.52.43-1.23.65-2.14.65h-1.73v2.12h-1v-7h2.73c.91,0,1.62.22,2.14.65Zm-.72,2.96c.33-.27.5-.66.5-1.17s-.17-.9-.5-1.17c-.33-.27-.82-.41-1.45-.41h-1.7v3.14h1.7c.63,0,1.12-.13,1.45-.4Z"/>
        <path class="cls-1" d="m148.13,49.94c-.57-.31-1.01-.74-1.33-1.29s-.48-1.16-.48-1.83.16-1.28.48-1.83.77-.97,1.33-1.29c.57-.31,1.2-.46,1.91-.46s1.33.16,1.9.46c.57.31,1.01.74,1.33,1.28.32.54.48,1.16.48,1.83s-.16,1.29-.48,1.83c-.32.54-.76.97-1.33,1.28-.57.31-1.2.46-1.9.46s-1.34-.16-1.91-.46Zm3.29-.78c.41-.23.73-.55.97-.96.24-.41.35-.87.35-1.38s-.12-.96-.35-1.38c-.24-.41-.56-.73-.97-.96s-.87-.35-1.38-.35-.98.12-1.39.35c-.42.23-.74.55-.98.96s-.35.87-.35,1.38.12.96.35,1.38.56.73.98.96c.42.23.88.35,1.39.35s.97-.12,1.38-.35Z"/>
        <path class="cls-1" d="m164.95,43.33l-2.34,7h-1.05l-1.91-5.59-1.91,5.59h-1.07l-2.34-7h1.03l1.89,5.69,1.97-5.69h.92l1.93,5.72,1.93-5.72h.95Z"/>
        <path class="cls-1" d="m171.25,49.46v.87h-5.08v-7h4.94v.87h-3.94v2.15h3.51v.85h-3.51v2.26h4.08Z"/>
        <path class="cls-1" d="m177.55,50.33l-1.51-2.15c-.19.01-.33.02-.44.02h-1.73v2.13h-1v-7h2.73c.91,0,1.62.22,2.14.65.52.43.78,1.03.78,1.79,0,.54-.13,1-.4,1.38s-.65.66-1.14.83l1.66,2.35h-1.09Zm-.53-3.39c.33-.27.5-.66.5-1.17s-.17-.9-.5-1.17c-.33-.27-.82-.41-1.45-.41h-1.7v3.15h1.7c.63,0,1.12-.14,1.45-.41Z"/>
        <path class="cls-1" d="m184.08,49.94c-.57-.31-1.01-.74-1.33-1.29s-.48-1.16-.48-1.83.16-1.28.48-1.83.77-.97,1.33-1.29c.57-.31,1.2-.46,1.91-.46s1.33.16,1.9.46c.57.31,1.01.74,1.33,1.28.32.54.48,1.16.48,1.83s-.16,1.29-.48,1.83c-.32.54-.76.97-1.33,1.28-.57.31-1.2.46-1.9.46s-1.34-.16-1.91-.46Zm3.29-.78c.41-.23.73-.55.97-.96.24-.41.35-.87.35-1.38s-.12-.96-.35-1.38c-.24-.41-.56-.73-.97-.96s-.87-.35-1.38-.35-.98.12-1.39.35c-.42.23-.74.55-.98.96s-.35.87-.35,1.38.12.96.35,1.38.56.73.98.96c.42.23.88.35,1.39.35s.97-.12,1.38-.35Z"/>
        <path class="cls-1" d="m192.23,44.2v2.44h3.51v.86h-3.51v2.83h-1v-7h4.94v.87h-3.94Z"/>
        <path class="cls-1" d="m205.35,49.46v.87h-5.08v-7h4.94v.87h-3.94v2.15h3.51v.85h-3.51v2.26h4.08Z"/>
        <path class="cls-1" d="m211.29,50.33l-2.1-2.89-2.07,2.89h-1.15l2.63-3.59-2.47-3.41h1.14l1.96,2.69,1.94-2.69h1.09l-2.47,3.38,2.65,3.62h-1.15Z"/>
        <path class="cls-1" d="m214.6,49.94c-.56-.31-1-.74-1.33-1.28-.32-.54-.48-1.16-.48-1.83s.16-1.29.48-1.83.76-.97,1.33-1.28c.57-.31,1.2-.46,1.9-.46.55,0,1.05.09,1.5.28.45.18.84.46,1.16.81l-.65.63c-.53-.55-1.18-.83-1.97-.83-.52,0-.99.12-1.41.35s-.75.55-.99.96-.35.87-.35,1.38.12.96.35,1.38.57.73.99.96.89.35,1.41.35c.78,0,1.44-.28,1.97-.84l.65.63c-.32.36-.71.63-1.17.82-.46.19-.96.28-1.5.28-.7,0-1.33-.16-1.89-.46Z"/>
        <path class="cls-1" d="m226.62,43.33v7h-1v-3.12h-4.02v3.12h-1v-7h1v3.01h4.02v-3.01h1Z"/>
        <path class="cls-1" d="m233.18,48.58h-3.72l-.77,1.75h-1.03l3.17-7h.99l3.18,7h-1.05l-.77-1.75Zm-.35-.8l-1.51-3.43-1.51,3.43h3.02Z"/>
        <path class="cls-1" d="m242.06,43.33v7h-.82l-4.2-5.22v5.22h-1v-7h.82l4.2,5.22v-5.22h1Z"/>
        <path class="cls-1" d="m249.01,46.79h.96v2.73c-.35.29-.75.51-1.21.66s-.94.23-1.44.23c-.71,0-1.34-.16-1.91-.46-.57-.31-1.01-.74-1.33-1.28-.32-.54-.48-1.16-.48-1.83s.16-1.29.48-1.84.77-.97,1.34-1.28c.57-.31,1.21-.46,1.93-.46.56,0,1.07.09,1.52.28s.84.45,1.17.8l-.62.62c-.56-.54-1.24-.81-2.03-.81-.53,0-1.01.12-1.43.35-.42.23-.75.55-1,.96s-.36.87-.36,1.38.12.96.36,1.38.57.73,1,.96c.42.23.9.35,1.42.35.63,0,1.17-.15,1.64-.45v-2.28Z"/>
        <path class="cls-1" d="m256.96,49.46v.87h-5.08v-7h4.94v.87h-3.94v2.15h3.51v.85h-3.51v2.26h4.08Z"/>
      </g>
    </g>
  </g>
</svg>