<svg width="218" height="38" viewBox="0 0 218 38" fill="none" xmlns="http://www.w3.org/2000/svg">
<g clip-path="url(#clip0_117_5956)">
<path d="M40.5336 24.5747C40.5113 25.1994 40.2809 25.7127 40.0505 26.2259C39.835 26.6944 39.6567 27.1853 39.404 27.6391C38.906 28.5614 38.3784 29.4539 37.7169 30.2721C37.1818 30.9266 36.6467 31.5811 36.0522 32.1836C35.4428 32.7935 34.759 33.2993 34.105 33.8497C33.5625 34.3108 32.9605 34.6678 32.3585 35.0472C31.9275 35.3224 31.5039 35.5976 31.0431 35.8133C30.6789 35.9843 30.3147 36.1777 29.9655 36.319C29.7797 36.4083 29.6607 36.4455 29.4229 36.5422C28.8655 36.743 28.3899 36.9289 27.8771 37.0851C27.2231 37.2636 26.6062 37.3901 25.9745 37.5463C25.2611 37.7248 24.5179 37.8512 23.7747 37.8884C22.645 37.9479 21.5154 38.0149 20.3857 37.9926C19.702 37.9777 19.0183 37.8735 18.342 37.7769C17.5839 37.6653 16.8481 37.457 16.1198 37.2413C15.4732 37.0479 14.8267 36.8322 14.2395 36.4752C14.0463 36.3562 13.8234 36.2967 13.6153 36.2C12.9092 35.8728 12.2255 35.486 11.5641 35.0769C11.2816 34.9058 11.0215 34.6901 10.7465 34.5116C10.375 34.2736 10.0257 34.0059 9.69122 33.7307C8.84398 33.0464 8.06363 32.2877 7.32044 31.4919C6.83737 30.9712 6.42118 30.3985 5.99013 29.8407C5.29153 28.9407 4.749 27.9366 4.25106 26.9101C3.77542 25.9358 3.3964 24.9317 3.05453 23.9127C2.90589 23.4664 2.78698 23.0127 2.66807 22.5664C2.60861 22.3433 2.55659 22.0904 2.49714 21.8598C2.44511 21.6293 2.37079 21.4136 2.37079 21.1756C2.37079 21.0714 2.3262 21.0417 2.23702 21.0342C1.20398 20.9152 0.683751 20.1938 0.282429 19.3458C0.0520395 18.855 -0.0148476 18.312 1.61803e-05 17.769C0.0520395 16.2368 0.780366 15.136 2.17013 14.4815C2.58632 14.2881 3.00251 14.0873 3.44099 13.9832C3.93892 13.8642 4.44429 13.7377 4.94223 13.6187C5.42531 13.4997 5.90095 13.3509 6.38402 13.2691C6.80764 13.1947 7.22383 13.0906 7.64744 13.0385C8.33861 12.9493 9.02978 12.86 9.72095 12.8154C10.5533 12.7633 11.3783 12.7931 12.2032 12.9121C12.6788 12.979 13.1545 12.9939 13.6301 13.0757C14.3287 13.2022 15.0273 13.3286 15.7036 13.5294C16.8853 13.8716 18.0372 14.2955 19.1372 14.8534C19.8655 15.2253 20.5418 15.6715 21.1289 16.2368C21.8349 16.9211 22.5335 17.6277 22.9423 18.55C23.1801 19.0855 23.3436 19.6508 23.4328 20.2235C23.5591 20.9971 23.7598 21.7334 24.3098 22.3284C24.6516 22.6929 25.105 22.8788 25.5658 23.035C27.3197 23.6301 29.1033 23.5631 30.8796 23.221C31.9795 23.0127 33.0794 22.797 34.1422 22.4177C34.8631 22.1648 35.5765 21.9119 36.2677 21.5921C36.7954 21.3466 37.2784 21.0194 37.7912 20.7665C38.3784 20.4764 38.8763 20.0971 39.3445 19.6582C39.6492 19.3682 39.8202 19.026 39.7904 18.5798C39.7607 18.0591 39.835 17.5236 39.7384 17.0104C39.6418 16.4897 39.5898 15.9691 39.4486 15.4559C39.2702 14.8162 39.077 14.1914 38.8689 13.5592C38.5419 12.5625 38.0811 11.6254 37.5609 10.7105C37.4568 10.5246 37.323 10.3535 37.2784 10.1452C37.2561 10.0411 37.1521 9.95184 37.0332 9.9444C36.9291 9.92953 36.8771 10.0262 36.8325 10.1155C36.6319 10.5469 36.2974 10.8593 35.9258 11.1345C35.7475 11.2683 35.7475 11.4171 35.7995 11.5807C36.0002 12.2204 36.2231 12.8452 36.4015 13.4923C36.5353 13.9906 36.7285 14.4889 36.8028 15.0096C36.8623 15.4484 36.8846 15.3145 36.944 16.0063C36.996 16.5418 37.0109 17.1442 37.0332 17.8583C37.0629 18.4979 37.0629 19.0855 37.0704 19.7029C37.0704 19.8591 37.0183 19.9558 36.8846 20.0376C36.4758 20.2979 36.0224 20.469 35.5691 20.6698C35.4948 20.588 35.5319 20.4913 35.5319 20.402C35.5691 19.4202 35.5245 18.4459 35.4056 17.4715C35.3164 16.7426 35.3164 15.9914 35.086 15.2997C34.9151 14.7864 34.8854 14.2509 34.6847 13.7451C34.5212 13.3509 34.432 12.9195 34.2685 12.5179C34.1942 12.332 34.1125 12.3617 33.9787 12.4435C33.2132 12.9344 32.4031 13.3286 31.541 13.6113C31.3255 13.6856 31.0951 13.7377 30.8721 13.7898C30.7458 13.8195 30.7384 13.827 30.7532 14.0055C30.7532 14.0501 30.7532 14.1022 30.7607 14.1468C30.9019 15.8129 31.0431 17.4864 30.9613 19.1599C30.939 19.5764 30.8944 19.9929 30.8721 20.4169C30.8498 20.7962 30.835 21.1012 30.7681 21.4656C30.7235 21.6888 30.7309 21.778 30.6789 21.9417C30.6789 22.0309 30.612 22.0012 30.5674 22.0012C30.0621 22.0012 29.5641 22.1276 29.0736 22.2169C28.9176 22.2466 28.8878 22.202 28.925 22.0607C29.0811 21.3913 29.0439 20.6995 29.1108 20.0153C29.2297 18.7731 29.1628 17.531 29.1405 16.2889C29.1256 15.6641 29.0216 15.0468 28.9621 14.4294C28.9473 14.2732 28.8507 14.2807 28.7392 14.2955C27.9217 14.4517 27.0819 14.4517 26.2569 14.4369C25.0678 14.4146 23.8936 14.2732 22.7193 14.0501C21.5823 13.8344 20.4749 13.5294 19.375 13.2096C18.8399 13.0534 18.3122 12.86 17.7771 12.6964C17.2792 12.5477 16.7813 12.3989 16.2833 12.2725C15.9563 12.1906 15.6144 12.1683 15.2874 12.0865C15.0719 12.0344 14.8787 11.9377 14.6632 11.8857C12.9167 11.4989 11.1553 11.3502 9.37908 11.4915C8.08593 11.5956 6.78534 11.7146 5.52935 12.0791C4.94223 12.2501 4.36254 12.4584 3.76799 12.6518C3.79772 11.9452 4.16188 11.3725 4.45173 10.77C4.83818 9.97415 5.32126 9.23037 5.82663 8.5089C6.03472 8.21138 6.28741 7.94362 6.51036 7.66098C6.87453 7.18496 7.26842 6.73869 7.67717 6.29985C8.10822 5.83871 8.57643 5.41475 9.02978 4.98335C9.37165 4.66353 9.69865 4.32138 10.0925 4.06106C10.6276 3.70404 11.1256 3.3024 11.683 2.97513C12.441 2.52142 13.2362 2.13465 14.0092 1.7107C14.6037 1.39087 15.2503 1.21236 15.8746 0.966912C16.759 0.617333 17.6879 0.423948 18.6169 0.252878C20.0439 -9.29087e-06 21.4782 -0.0818257 22.9274 -0.00744716C23.8639 0.0446178 24.7928 0.156186 25.7218 0.327256C27.5649 0.676835 29.3337 1.25699 30.9985 2.12722C31.8309 2.55861 32.6409 3.04207 33.3841 3.62966C33.6888 3.87511 33.9935 4.07593 34.3354 4.3437C34.8185 4.70071 35.2124 5.08748 35.6137 5.504C36.3866 6.30729 37.1075 7.16264 37.7838 8.04775C38.3486 8.7841 38.8243 9.56507 39.2702 10.3832C39.5823 10.956 39.7533 11.5733 39.9911 12.1683C40.2512 12.808 40.4593 13.3881 40.6451 14.117C40.7566 14.5559 40.8235 14.965 40.9126 15.3889C41.0018 15.8054 41.0687 16.2294 41.0761 16.6608C41.0761 16.8244 41.1356 16.869 41.2842 16.869C42.1092 16.869 42.674 17.3153 43.1422 17.9475C43.6402 18.6169 43.7293 19.3756 43.6179 20.164C43.5807 20.4318 43.4246 20.6921 43.3057 20.945C43.0828 21.3913 42.726 21.7334 42.3693 22.0681C42.1463 22.2764 41.8788 22.4326 41.6187 22.5888C41.2396 22.8193 40.8458 23.0425 40.4593 23.2582C39.456 23.816 38.4081 24.2846 37.3007 24.5895C36.2157 24.8871 35.1232 25.1251 34.0233 25.3556C33.6517 25.43 33.2578 25.4895 32.8862 25.5565C32.5815 25.6085 32.2842 25.6531 31.9795 25.6829C31.7714 25.7052 31.8234 25.6978 31.7119 25.7127C30.7384 25.7945 29.8465 25.9804 28.8804 26.0176C27.944 26.0474 27.0001 26.0325 26.0637 25.8763C25.3577 25.7573 24.6516 25.6308 23.9828 25.3482C22.9795 24.9242 22.1322 24.2995 21.4262 23.4664C20.787 22.7078 20.5864 21.7855 20.4155 20.8483C20.1702 19.4351 19.5311 18.2599 18.3494 17.4046C17.8737 17.0624 17.3907 16.7426 16.8704 16.4823C16.2685 16.1773 15.6219 15.9839 14.9604 15.8277C14.403 15.6939 13.8531 15.5377 13.2883 15.4707C12.0025 15.322 10.7168 15.322 9.44596 15.5154C8.569 15.6492 7.69204 15.8352 6.86709 16.155C6.00499 16.4897 5.17262 16.8839 4.54834 17.6054C3.96865 18.2748 3.82745 19.0632 3.96122 19.9111C4.11729 20.8929 4.26593 21.8747 4.5855 22.8193C5.06857 24.2771 5.67056 25.6829 6.54009 26.9622C6.73332 27.2449 6.74075 27.2523 6.99344 27.0515C7.65488 26.5234 8.32375 25.9953 9.05207 25.5639C9.14869 25.5044 9.15612 25.4523 9.12639 25.3556C9.02978 25.0284 8.9183 24.7011 8.85141 24.3738C8.7325 23.8086 8.58386 23.2507 8.47239 22.6854C8.39063 22.2689 8.34604 21.845 8.23456 21.4359C8.11565 20.9822 8.11565 20.5062 8.08593 20.0376C8.04134 19.3235 8.00418 18.6095 8.02647 17.8955C8.02647 17.6946 8.0785 17.6128 8.30888 17.5682C8.7548 17.4864 9.18585 17.3451 9.6169 17.2112C9.7804 17.1591 9.83242 17.1814 9.83242 17.3599C9.83242 17.9327 9.83242 18.5128 9.87702 19.0855C9.90674 19.5913 9.98106 20.0896 10.0479 20.588C10.1446 21.3541 10.2709 22.1127 10.427 22.8714C10.5385 23.4292 10.7317 23.9648 10.9175 24.5077C10.9769 24.6788 11.0958 24.5895 11.1627 24.5747C11.46 24.5152 11.7647 24.4482 12.0546 24.3515C12.6491 24.1507 13.2585 24.054 13.8754 23.9648C14.522 23.8681 15.1685 23.7862 15.8225 23.816C15.882 23.816 15.9414 23.8234 16.0009 23.816C16.1049 23.8086 16.2462 23.9276 16.3056 23.816C16.3576 23.7193 16.2239 23.6226 16.1718 23.5259C15.7705 22.8193 15.4361 22.083 15.1834 21.3169C14.9679 20.6623 14.6929 20.0153 14.6929 19.3087C14.6929 18.8178 15.0199 18.5054 15.5104 18.5054C15.986 18.5054 16.4394 18.5426 16.8853 18.7359C17.413 18.9665 17.6359 19.3905 17.7623 19.9186C18.0149 20.9971 18.3494 22.0384 18.8845 23.0127C19.5236 24.1656 20.3857 25.1176 21.5154 25.7945C22.4444 26.3597 23.4477 26.754 24.5253 27.0068C25.811 27.3118 27.1042 27.4382 28.4196 27.3787C29.4972 27.3341 30.5749 27.2672 31.6451 27.1556C32.2693 27.0887 32.8862 26.9697 33.4956 26.8209C33.9787 26.7019 34.4766 26.6796 34.9523 26.5606C35.9704 26.3002 37.0109 26.092 37.9993 25.7127C38.8094 25.4077 39.6121 25.073 40.3627 24.6342C40.4073 24.6118 40.4519 24.597 40.5336 24.5598V24.5747ZM27.617 12.6741C27.8251 12.6741 28.0257 12.6741 28.2338 12.6741C28.5212 12.6741 28.6153 12.5452 28.5162 12.2873C28.5014 12.2501 28.5014 12.2055 28.4865 12.1609C28.1818 11.0824 27.9514 9.98903 27.5649 8.93285C26.9184 7.16264 26.1603 5.45938 24.9935 3.96437C24.607 3.47347 24.2577 2.95282 23.7449 2.57349C23.3065 2.25366 22.5112 2.24622 22.0876 2.57349C21.3667 3.13133 20.7499 3.78586 20.1628 4.47758C19.2932 5.51888 18.6392 6.67918 18.1562 7.94362C17.844 8.76922 17.6879 9.63945 17.4278 10.4799C17.3832 10.6287 17.4278 10.6882 17.5616 10.7179C17.8143 10.7774 18.0744 10.8369 18.3271 10.9113C19.2561 11.1865 20.1851 11.4617 21.1363 11.67C21.3296 11.7146 21.5005 11.8039 21.6937 11.8336C22.1471 11.908 22.6004 11.9972 23.0463 12.1088C23.849 12.2948 24.6739 12.4212 25.484 12.5328C26.19 12.6295 26.9035 12.7038 27.6244 12.6592L27.617 12.6741ZM16.9225 26.4936C16.9076 27.163 17.0785 27.9143 17.2718 28.6506C17.4427 29.2903 17.6508 29.915 17.8737 30.5398C18.2453 31.5662 18.7061 32.5406 19.3007 33.448C19.8432 34.2662 20.4675 35.0323 21.1809 35.7166C21.5228 36.0438 21.9018 36.267 22.3923 36.0513C22.6153 35.9546 22.8234 35.8281 23.0463 35.724C23.5889 35.4637 24.0348 35.062 24.4287 34.6232C24.8895 34.1174 25.3279 33.5968 25.707 33.0241C26.0042 32.5852 26.2867 32.1464 26.5245 31.6778C26.8961 30.9415 27.1934 30.1754 27.4237 29.3795C27.4906 29.1489 27.3866 29.1043 27.1933 29.1118C26.0042 29.1787 24.8374 28.963 23.6706 28.8217C22.8234 28.7175 21.9984 28.4647 21.2181 28.1151C19.9918 27.5721 18.8993 26.8135 17.9183 25.8986C17.7994 25.787 17.6731 25.735 17.5021 25.7498C16.8927 25.787 16.8927 25.7796 16.9076 26.5011L16.9225 26.4936ZM11.3857 9.78077C11.9134 9.80308 12.441 9.79565 12.9687 9.8254C13.7193 9.86259 14.4402 10.0188 15.1685 10.175C15.4732 10.2419 15.4881 10.2345 15.503 9.93696C15.503 9.86259 15.5104 9.78077 15.5253 9.70639C15.6888 8.97748 15.8894 8.26345 16.1495 7.56429C16.7961 5.83871 17.6731 4.26932 19.0034 2.97513C19.1966 2.78919 19.3973 2.61812 19.5905 2.43961C19.6351 2.40242 19.6946 2.35779 19.65 2.29085C19.6202 2.24622 19.5608 2.26854 19.5088 2.27597C19.3453 2.29829 19.1892 2.3206 19.0257 2.35779C17.7623 2.64043 16.5137 2.97513 15.3395 3.52553C14.4625 3.93462 13.6004 4.38832 12.8275 4.96104C11.8465 5.68995 10.9472 6.51555 10.1446 7.45272C9.52028 8.18163 8.92573 8.92542 8.42779 9.74358C8.39807 9.78821 8.36091 9.8254 8.3832 9.8849C8.41293 9.95184 8.46495 9.91465 8.51698 9.91465C9.47569 9.8849 10.427 9.73614 11.3857 9.78821V9.78077ZM30.5897 12.0865C30.7309 12.0493 30.8721 12.0196 31.0133 11.9824C31.8086 11.7592 32.5295 11.3576 33.2429 10.9559C33.4139 10.8593 33.4213 10.7849 33.3544 10.6138C32.9308 9.62457 32.3362 8.73947 31.8011 7.81718C31.1991 6.79075 30.5228 5.80895 29.7648 4.8941C29.579 4.67096 29.4155 4.43295 29.2446 4.19494C29.1628 4.07593 28.6946 3.50322 28.6054 3.46603C27.996 3.19827 27.6095 3.15364 26.9853 2.92307C26.9332 2.90075 26.8663 2.84869 26.8218 2.92307C26.7846 2.98257 26.8366 3.03464 26.8663 3.0867C27.2156 3.74867 27.5724 4.41064 27.9142 5.07261C28.3379 5.88333 28.6946 6.73125 29.0216 7.5866C29.5641 8.99979 29.9506 10.4651 30.3965 11.9154C30.4337 12.027 30.456 12.1163 30.5972 12.1014L30.5897 12.0865ZM34.8333 27.8994C34.5584 27.9143 34.2685 28.0779 33.949 28.1523C33.3024 28.3085 32.6484 28.4572 31.9944 28.5762C31.266 28.7027 30.5228 28.7845 29.7871 28.8812C29.6756 28.8961 29.5939 28.9035 29.5716 29.0448C29.4526 29.7217 29.1851 30.3539 28.9473 30.9935C28.4939 32.2282 27.8028 33.4629 27.1859 34.5042C27.1562 34.5637 27.0967 34.6381 27.1339 34.6827C27.1562 34.7125 27.2454 34.6827 27.3048 34.653C27.8622 34.3852 28.427 34.1695 28.9696 33.8571C29.8837 33.329 30.7161 32.6968 31.5039 32.0125C32.4031 31.2315 33.1909 30.3464 33.9564 29.4316C34.328 28.9927 34.6698 28.539 34.9523 28.0481C34.9746 28.011 35.0043 27.9738 34.982 27.9291C34.9597 27.8771 34.9225 27.8845 34.8259 27.9068L34.8333 27.8994ZM15.0125 26.5234C15.0125 26.3226 15.005 26.1292 15.0125 25.9284C15.0199 25.7722 14.9679 25.7052 14.8044 25.7275C14.4922 25.7722 14.1727 25.7796 13.8605 25.8391C13.4815 25.9135 13.1099 26.092 12.7309 26.0994C12.3667 26.0994 12.062 26.2705 11.7201 26.3151C11.6012 26.33 11.5566 26.3895 11.6384 26.5234C11.7796 26.7688 11.8836 27.0292 11.9951 27.2895C12.5153 28.5018 13.1471 29.6398 13.9571 30.6811C14.5814 31.4844 15.2057 32.2952 15.9935 32.9497C16.1718 33.0984 16.3056 33.2993 16.4914 33.4183C16.7144 33.5596 16.9076 33.7307 17.1231 33.8794C17.2941 33.9984 17.413 34.1621 17.5913 34.2662C17.6359 34.2959 17.7028 34.348 17.7474 34.2736C17.7771 34.229 17.74 34.1769 17.7028 34.1397C17.5913 34.0356 17.4799 33.9389 17.3981 33.805C17.1974 33.4703 16.9893 33.1356 16.811 32.7786C16.1644 31.5365 15.607 30.2646 15.3246 28.8886C15.1611 28.1076 15.005 27.3267 15.0199 26.5308L15.0125 26.5234ZM16.7069 35.0397C16.3651 34.8463 16.0381 34.7273 15.7334 34.5488C14.8267 34.0059 13.9943 33.3588 13.2957 32.5778C12.6268 31.834 11.9579 31.0902 11.4377 30.2274C11.2519 29.9225 10.9918 29.6622 10.8283 29.3423C10.5162 28.7175 10.2263 28.0779 9.9439 27.4457C9.88445 27.3044 9.85472 27.2895 9.71351 27.3862C9.05951 27.8176 8.46495 28.3085 7.91499 28.8589C7.79608 28.9779 7.81838 29.0374 7.91499 29.1489C8.45009 29.7737 8.99262 30.3836 9.57974 30.9638C10.1966 31.5662 10.8357 32.139 11.5195 32.6596C11.9802 33.0166 12.5079 33.2695 12.9984 33.5819C13.4666 33.8794 13.92 34.1769 14.4476 34.3703C14.953 34.5563 15.4435 34.7868 15.9489 34.9653C16.1644 35.0397 16.3948 35.1885 16.6995 35.0472L16.7069 35.0397ZM32.8119 6.08416C33.3767 6.9172 33.9712 7.72792 34.4246 8.6279C34.5881 8.94773 34.7144 9.28987 34.93 9.59482C35.0043 9.69895 35.0563 9.72127 35.1455 9.62457C35.3536 9.38656 35.5542 9.14111 35.7772 8.91798C35.9481 8.74691 35.9258 8.60559 35.7995 8.42708C35.3684 7.81718 34.8556 7.26678 34.3131 6.76844C33.5253 6.0544 31.6302 4.38089 31.8309 4.75278" fill="#0A6FB7"/>
<path d="M74.9433 17.4046C75.8351 18.5723 76.2811 20.0153 76.2811 21.7185C76.2811 24.1358 75.3446 25.9953 73.4644 27.2969C71.5841 28.5985 68.8492 29.2456 65.2521 29.2456H50.9903V1.65863H64.4643C67.8236 1.65863 70.4024 2.30572 72.2009 3.59247C73.9995 4.87922 74.8987 6.62712 74.8987 8.83616C74.8987 10.175 74.5792 11.3725 73.9326 12.4212C73.286 13.4699 72.3867 14.303 71.2348 14.9055C72.8104 15.4038 74.0441 16.2368 74.9359 17.412L74.9433 17.4046ZM57.3371 6.46348V12.9716H63.6766C65.2521 12.9716 66.4487 12.6964 67.2587 12.146C68.0688 11.5956 68.4776 10.7774 68.4776 9.69895C68.4776 8.62046 68.0688 7.80974 67.2587 7.27421C66.4412 6.73869 65.2521 6.46348 63.6766 6.46348H57.3371ZM68.5816 23.6077C69.4363 23.0573 69.8599 22.202 69.8599 21.0417C69.8599 18.7583 68.1654 17.6128 64.7765 17.6128H57.3297V24.4333H64.7765C66.4561 24.4333 67.7269 24.1581 68.5742 23.6077H68.5816Z" fill="#0A6FB7"/>
<path d="M97.4323 10.0709C99.1936 11.6328 100.071 13.9906 100.071 17.1443V29.2456H94.3183V26.6052C93.1664 28.5762 91.0111 29.558 87.86 29.558C86.2324 29.558 84.8203 29.2828 83.6238 28.7324C82.4273 28.182 81.5206 27.4159 80.8889 26.449C80.2571 25.4747 79.945 24.3739 79.945 23.1392C79.945 21.1681 80.6882 19.6211 82.1671 18.4905C83.6535 17.36 85.9426 16.7947 89.0417 16.7947H93.9244C93.9244 15.4559 93.5157 14.422 92.7056 13.7005C91.8881 12.9791 90.6692 12.6146 89.0417 12.6146C87.912 12.6146 86.8047 12.7931 85.7122 13.1501C84.6197 13.5071 83.6981 13.9832 82.9326 14.5856L80.7254 10.2866C81.8773 9.47583 83.2671 8.84361 84.8798 8.39734C86.4925 7.95107 88.1573 7.72794 89.8666 7.72794C93.1515 7.72794 95.6709 8.50891 97.4323 10.0709ZM92.1928 24.6937C93.0029 24.2102 93.5825 23.4887 93.9244 22.5441V20.3723H89.7105C87.1911 20.3723 85.9277 21.1979 85.9277 22.8565C85.9277 23.6449 86.2398 24.2697 86.8567 24.7309C87.4735 25.192 88.3208 25.4226 89.3984 25.4226C90.476 25.4226 91.3827 25.1771 92.1928 24.6937Z" fill="#0A6FB7"/>
<path d="M115.098 8.51635C116.346 7.98826 117.781 7.72794 119.408 7.72794V13.403C118.725 13.351 118.264 13.3212 118.033 13.3212C116.272 13.3212 114.897 13.8121 113.894 14.8013C112.898 15.7906 112.4 17.2633 112.4 19.2343V29.2456H106.254V8.04033H112.125V10.837C112.861 9.81053 113.849 9.037 115.098 8.50891V8.51635Z" fill="#0A6FB7"/>
<path d="M138.122 28.2267C137.52 28.6729 136.777 29.0076 135.9 29.2308C135.023 29.4539 134.094 29.5655 133.12 29.5655C130.601 29.5655 128.654 28.9184 127.271 27.6316C125.896 26.3449 125.205 24.4482 125.205 21.9565V13.2468H121.935V8.51633H125.205V3.35446H131.351V8.51633H136.628V13.2468H131.351V21.8822C131.351 22.7747 131.582 23.4664 132.043 23.9499C132.503 24.4333 133.15 24.6788 133.99 24.6788C134.963 24.6788 135.788 24.4185 136.472 23.8904L138.129 28.2267H138.122Z" fill="#0A6FB7"/>
<path d="M162.186 20.3797H146.156C146.446 21.6962 147.129 22.7301 148.207 23.4962C149.285 24.2623 150.622 24.6416 152.228 24.6416C153.328 24.6416 154.309 24.478 155.163 24.1507C156.018 23.8235 156.813 23.3028 157.549 22.5962L160.819 26.1441C158.82 28.4275 155.906 29.5729 152.072 29.5729C149.679 29.5729 147.568 29.1043 145.732 28.1746C143.896 27.2449 142.477 25.9433 141.481 24.292C140.485 22.6334 139.987 20.7591 139.987 18.6542C139.987 16.5492 140.478 14.7047 141.466 13.0386C142.455 11.3725 143.8 10.0709 145.524 9.1337C147.241 8.20397 149.166 7.73538 151.291 7.73538C153.417 7.73538 155.245 8.18165 156.925 9.0742C158.604 9.96674 159.927 11.2461 160.886 12.9196C161.845 14.5856 162.32 16.5269 162.32 18.736C162.32 18.8178 162.283 19.3682 162.201 20.3946L162.186 20.3797ZM147.813 13.5592C146.869 14.3476 146.29 15.4261 146.081 16.7947H156.516C156.308 15.4559 155.728 14.3848 154.784 13.5815C153.84 12.7782 152.681 12.3766 151.321 12.3766C149.961 12.3766 148.757 12.7708 147.813 13.5592Z" fill="#0A6FB7"/>
<path d="M175.876 8.51635C177.125 7.98826 178.559 7.72794 180.187 7.72794V13.403C179.503 13.351 179.042 13.3212 178.812 13.3212C177.05 13.3212 175.675 13.8121 174.672 14.8013C173.676 15.7906 173.178 17.2633 173.178 19.2343V29.2456H167.032V8.04033H172.903V10.837C173.639 9.81053 174.627 9.037 175.876 8.50891V8.51635Z" fill="#0A6FB7"/>
<path d="M184.482 0H190.628V29.2531H184.482V0Z" fill="#0A6FB7"/>
<path d="M218 8.04031L208.428 30.5473C207.454 32.9943 206.258 34.7125 204.823 35.7091C203.389 36.7058 201.665 37.2041 199.643 37.2041C198.543 37.2041 197.451 37.0331 196.373 36.6909C195.296 36.3488 194.419 35.8802 193.735 35.2703L195.979 30.8968C196.455 31.3208 196.997 31.6481 197.614 31.8861C198.231 32.1241 198.841 32.2431 199.443 32.2431C200.282 32.2431 200.966 32.0423 201.494 31.6332C202.021 31.2241 202.49 30.5473 202.913 29.6027L202.995 29.4093L193.817 8.04031H200.156L206.102 22.4251L212.092 8.04031H218Z" fill="#0A6FB7"/>
<path d="M51.7632 36.8992C51.3768 36.505 51.1835 35.9323 51.1835 35.1885V32.2282H51.9267V35.1587C51.9267 36.2744 52.4172 36.8322 53.3908 36.8322C53.8664 36.8322 54.2306 36.6909 54.4833 36.4157C54.736 36.1405 54.8623 35.724 54.8623 35.1587V32.2282H55.5832V35.1885C55.5832 35.9397 55.39 36.505 55.0035 36.8992C54.6171 37.2934 54.0745 37.4868 53.3834 37.4868C52.6922 37.4868 52.1497 37.2859 51.7632 36.8917V36.8992Z" fill="#0A6FB7"/>
<path d="M61.5808 32.2282V37.4347H60.9713L57.8499 33.5521V37.4347H57.1068V32.2282H57.7162L60.8376 36.1108V32.2282H61.5808Z" fill="#0A6FB7"/>
<path d="M63.1415 32.2282H63.8847V36.7876H66.7014V37.4347H63.1415V32.2282Z" fill="#0A6FB7"/>
<path d="M68.3884 37.1446C67.9648 36.9141 67.6378 36.5942 67.3999 36.1852C67.1621 35.7761 67.0432 35.3224 67.0432 34.824C67.0432 34.3257 67.1621 33.872 67.3999 33.4629C67.6378 33.0538 67.9722 32.7414 68.3884 32.5034C68.812 32.2729 69.2802 32.1613 69.8079 32.1613C70.3355 32.1613 70.7963 32.2803 71.2199 32.5034C71.6436 32.734 71.9706 33.0538 72.2084 33.4555C72.4462 33.8571 72.5651 34.3183 72.5651 34.8166C72.5651 35.3149 72.4462 35.7761 72.2084 36.1777C71.9706 36.5794 71.6436 36.8992 71.2199 37.1298C70.7963 37.3603 70.3281 37.4719 69.8079 37.4719C69.2876 37.4719 68.812 37.3529 68.3884 37.1298V37.1446ZM70.8335 36.5645C71.1382 36.3934 71.376 36.1554 71.5544 35.8505C71.7327 35.5455 71.8145 35.2034 71.8145 34.824C71.8145 34.4447 71.7253 34.11 71.5544 33.7976C71.376 33.4927 71.1382 33.2546 70.8335 33.0836C70.5288 32.9125 70.1869 32.8233 69.8079 32.8233C69.4289 32.8233 69.0796 32.9125 68.7748 33.0836C68.4627 33.2546 68.2249 33.4927 68.0465 33.7976C67.8682 34.1026 67.7864 34.4447 67.7864 34.824C67.7864 35.2034 67.8756 35.5381 68.0465 35.8505C68.2175 36.1629 68.4627 36.3934 68.7748 36.5645C69.087 36.7356 69.4289 36.8248 69.8079 36.8248C70.1869 36.8248 70.5288 36.7356 70.8335 36.5645Z" fill="#0A6FB7"/>
<path d="M74.6163 37.1446C74.2001 36.9141 73.8731 36.5942 73.6279 36.1926C73.39 35.7909 73.2711 35.3298 73.2711 34.8315C73.2711 34.3331 73.39 33.872 73.6279 33.4703C73.8657 33.0687 74.1927 32.7489 74.6163 32.5183C75.0399 32.2877 75.5081 32.1761 76.0284 32.1761C76.4371 32.1761 76.8087 32.2431 77.1431 32.3844C77.4776 32.5183 77.7674 32.7265 78.0052 32.9869L77.5222 33.4555C77.1283 33.0464 76.6452 32.8381 76.0581 32.8381C75.6716 32.8381 75.3223 32.9274 75.0102 33.0984C74.698 33.2695 74.4528 33.5075 74.2744 33.8125C74.0961 34.1174 74.0143 34.4596 74.0143 34.8389C74.0143 35.2182 74.1035 35.5529 74.2744 35.8653C74.4454 36.1777 74.698 36.4083 75.0102 36.5794C75.3223 36.7504 75.6716 36.8397 76.0581 36.8397C76.6378 36.8397 77.1283 36.6314 77.5222 36.2149L78.0052 36.6835C77.7674 36.9513 77.4776 37.1521 77.1357 37.2934C76.7938 37.4347 76.4222 37.5017 76.0209 37.5017C75.5007 37.5017 75.0325 37.3826 74.6163 37.1595V37.1446Z" fill="#0A6FB7"/>
<path d="M80.7699 35.1215L79.8186 36.0885V37.4347H79.0754V32.2282H79.8186V35.1364L82.6427 32.2282H83.49L81.2678 34.5711L83.6312 37.4347H82.7617L80.7699 35.1215Z" fill="#0A6FB7"/>
<path d="M87.4512 32.8753H85.6675V32.2282H89.9706V32.8753H88.187V37.4347H87.4512V32.8753Z" fill="#0A6FB7"/>
<path d="M95.2547 32.2282V37.4347H94.5115V35.1141H91.5239V37.4347H90.7807V32.2282H91.5239V34.467H94.5115V32.2282H95.2547Z" fill="#0A6FB7"/>
<path d="M100.591 36.7876V37.4347H96.8154V32.2282H100.487V32.8753H97.5586V34.4744H100.167V35.1067H97.5586V36.7876H100.591Z" fill="#0A6FB7"/>
<path d="M107.413 32.7117C107.8 33.0315 107.993 33.4778 107.993 34.043C107.993 34.6083 107.8 35.0546 107.413 35.3744C107.027 35.6943 106.499 35.8579 105.823 35.8579H104.537V37.4347H103.794V32.2282H105.823C106.499 32.2282 107.027 32.3918 107.413 32.7117ZM106.878 34.9133C107.123 34.7125 107.25 34.4224 107.25 34.043C107.25 33.6637 107.123 33.3736 106.878 33.1728C106.633 32.972 106.269 32.8679 105.801 32.8679H104.537V35.2034H105.801C106.269 35.2034 106.633 35.1067 106.878 34.9058V34.9133Z" fill="#0A6FB7"/>
<path d="M110.089 37.1446C109.665 36.9141 109.338 36.5942 109.1 36.1852C108.862 35.7761 108.744 35.3224 108.744 34.824C108.744 34.3257 108.862 33.872 109.1 33.4629C109.338 33.0538 109.673 32.7414 110.089 32.5034C110.512 32.2729 110.981 32.1613 111.508 32.1613C112.036 32.1613 112.497 32.2803 112.92 32.5034C113.344 32.734 113.671 33.0538 113.909 33.4555C114.147 33.8571 114.265 34.3183 114.265 34.8166C114.265 35.3149 114.147 35.7761 113.909 36.1777C113.671 36.5794 113.344 36.8992 112.92 37.1298C112.497 37.3603 112.028 37.4719 111.508 37.4719C110.988 37.4719 110.512 37.3529 110.089 37.1298V37.1446ZM112.534 36.5645C112.839 36.3934 113.076 36.1554 113.255 35.8505C113.433 35.5455 113.515 35.2034 113.515 34.824C113.515 34.4447 113.426 34.11 113.255 33.7976C113.076 33.4927 112.839 33.2546 112.534 33.0836C112.229 32.9125 111.887 32.8233 111.508 32.8233C111.129 32.8233 110.78 32.9125 110.475 33.0836C110.163 33.2546 109.925 33.4927 109.747 33.7976C109.569 34.1026 109.487 34.4447 109.487 34.824C109.487 35.2034 109.576 35.5381 109.747 35.8505C109.918 36.1629 110.163 36.3934 110.475 36.5645C110.787 36.7356 111.129 36.8248 111.508 36.8248C111.887 36.8248 112.229 36.7356 112.534 36.5645Z" fill="#0A6FB7"/>
<path d="M122.589 32.2282L120.85 37.4347H120.07L118.65 33.2769L117.231 37.4347H116.436L114.697 32.2282H115.462L116.867 36.4603L118.331 32.2282H119.015L120.449 36.4827L121.883 32.2282H122.589Z" fill="#0A6FB7"/>
<path d="M127.271 36.7876V37.4347H123.496V32.2282H127.167V32.8753H124.239V34.4744H126.848V35.1067H124.239V36.7876H127.271Z" fill="#0A6FB7"/>
<path d="M131.953 37.4347L130.831 35.8356C130.69 35.843 130.586 35.8504 130.504 35.8504H129.219V37.4347H128.475V32.2282H130.504C131.181 32.2282 131.708 32.3918 132.095 32.7117C132.481 33.0315 132.674 33.4778 132.674 34.043C132.674 34.4447 132.578 34.7868 132.377 35.0695C132.176 35.3521 131.894 35.5604 131.53 35.6868L132.764 37.4347H131.953ZM131.56 34.9133C131.805 34.7125 131.931 34.4224 131.931 34.043C131.931 33.6637 131.805 33.3736 131.56 33.1728C131.314 32.972 130.95 32.8679 130.482 32.8679H129.219V35.2108H130.482C130.95 35.2108 131.314 35.1067 131.56 34.9058V34.9133Z" fill="#0A6FB7"/>
<path d="M136.806 37.1446C136.383 36.9141 136.056 36.5942 135.818 36.1852C135.58 35.7761 135.461 35.3224 135.461 34.824C135.461 34.3257 135.58 33.872 135.818 33.4629C136.056 33.0538 136.39 32.7414 136.806 32.5034C137.23 32.2729 137.698 32.1613 138.226 32.1613C138.754 32.1613 139.214 32.2803 139.638 32.5034C140.062 32.734 140.389 33.0538 140.626 33.4555C140.864 33.8571 140.983 34.3183 140.983 34.8166C140.983 35.3149 140.864 35.7761 140.626 36.1777C140.389 36.5794 140.062 36.8992 139.638 37.1298C139.214 37.3603 138.746 37.4719 138.226 37.4719C137.706 37.4719 137.23 37.3529 136.806 37.1298V37.1446ZM139.252 36.5645C139.556 36.3934 139.794 36.1554 139.972 35.8505C140.151 35.5455 140.233 35.2034 140.233 34.824C140.233 34.4447 140.143 34.11 139.972 33.7976C139.794 33.4927 139.556 33.2546 139.252 33.0836C138.947 32.9125 138.605 32.8233 138.226 32.8233C137.847 32.8233 137.498 32.9125 137.193 33.0836C136.881 33.2546 136.643 33.4927 136.465 33.7976C136.286 34.1026 136.204 34.4447 136.204 34.824C136.204 35.2034 136.294 35.5381 136.465 35.8505C136.636 36.1629 136.881 36.3934 137.193 36.5645C137.505 36.7356 137.847 36.8248 138.226 36.8248C138.605 36.8248 138.947 36.7356 139.252 36.5645Z" fill="#0A6FB7"/>
<path d="M142.863 32.8753V34.6901H145.472V35.3298H142.863V37.4347H142.12V32.2282H145.792V32.8753H142.863Z" fill="#0A6FB7"/>
<path d="M152.614 36.7876V37.4347H148.839V32.2282H152.51V32.8753H149.582V34.4744H152.191V35.1067H149.582V36.7876H152.614Z" fill="#0A6FB7"/>
<path d="M157.029 37.4347L155.468 35.2852L153.93 37.4347H153.075L155.029 34.7645L153.194 32.2282H154.041L155.498 34.229L156.939 32.2282H157.75L155.914 34.7422L157.883 37.4347H157.029Z" fill="#0A6FB7"/>
<path d="M159.489 37.1446C159.072 36.9141 158.745 36.5942 158.5 36.1926C158.262 35.7909 158.143 35.3298 158.143 34.8315C158.143 34.3331 158.262 33.872 158.5 33.4703C158.738 33.0687 159.065 32.7489 159.489 32.5183C159.912 32.2877 160.38 32.1761 160.901 32.1761C161.309 32.1761 161.681 32.2431 162.015 32.3844C162.35 32.5183 162.64 32.7265 162.878 32.9869L162.394 33.4555C162.001 33.0464 161.518 32.8381 160.93 32.8381C160.544 32.8381 160.195 32.9274 159.883 33.0984C159.57 33.2695 159.325 33.5075 159.147 33.8125C158.968 34.1174 158.887 34.4596 158.887 34.8389C158.887 35.2182 158.976 35.5529 159.147 35.8653C159.318 36.1777 159.57 36.4083 159.883 36.5794C160.195 36.7504 160.544 36.8397 160.93 36.8397C161.51 36.8397 162.001 36.6314 162.394 36.2149L162.878 36.6835C162.64 36.9513 162.35 37.1521 162.008 37.2934C161.666 37.4347 161.295 37.5017 160.893 37.5017C160.373 37.5017 159.905 37.3826 159.489 37.1595V37.1446Z" fill="#0A6FB7"/>
<path d="M168.422 32.2282V37.4347H167.679V35.1141H164.691V37.4347H163.948V32.2282H164.691V34.467H167.679V32.2282H168.422Z" fill="#0A6FB7"/>
<path d="M173.297 36.1331H170.532L169.96 37.4347H169.195L171.551 32.2282H172.286L174.65 37.4347H173.869L173.297 36.1331ZM173.037 35.5381L171.915 32.9869L170.793 35.5381H173.037Z" fill="#0A6FB7"/>
<path d="M179.897 32.2282V37.4347H179.287L176.166 33.5521V37.4347H175.423V32.2282H176.032L179.153 36.1108V32.2282H179.897Z" fill="#0A6FB7"/>
<path d="M185.062 34.8017H185.775V36.8322C185.515 37.0479 185.218 37.2116 184.876 37.3231C184.534 37.4347 184.177 37.4942 183.806 37.4942C183.278 37.4942 182.81 37.3752 182.386 37.1521C181.963 36.9215 181.636 36.6017 181.398 36.2C181.16 35.7984 181.041 35.3372 181.041 34.8389C181.041 34.3406 181.16 33.8794 181.398 33.4703C181.636 33.0613 181.97 32.7489 182.394 32.5183C182.817 32.2877 183.293 32.1761 183.828 32.1761C184.244 32.1761 184.623 32.2431 184.958 32.3844C185.292 32.5257 185.582 32.7191 185.827 32.9794L185.366 33.4406C184.95 33.0389 184.445 32.8381 183.858 32.8381C183.464 32.8381 183.107 32.9274 182.795 33.0984C182.483 33.2695 182.238 33.5075 182.052 33.8125C181.866 34.1174 181.784 34.4596 181.784 34.8389C181.784 35.2182 181.874 35.5529 182.052 35.8653C182.23 36.1777 182.475 36.4083 182.795 36.5794C183.107 36.7504 183.464 36.8397 183.85 36.8397C184.319 36.8397 184.72 36.7281 185.069 36.505V34.8091L185.062 34.8017Z" fill="#0A6FB7"/>
<path d="M190.97 36.7876V37.4347H187.195V32.2282H190.866V32.8753H187.938V34.4744H190.547V35.1067H187.938V36.7876H190.97Z" fill="#0A6FB7"/>
</g>
<defs>
<clipPath id="clip0_117_5956">
<rect width="218" height="38" fill="white"/>
</clipPath>
</defs>
</svg>
