<svg width="219" height="39" viewBox="0 0 219 39" fill="none" xmlns="http://www.w3.org/2000/svg">
<g id="&#208;&#161;&#208;&#187;&#208;&#190;&#208;&#185; 1">
<g id="Group">
<path id="Vector" d="M40.5356 24.6085C40.5133 25.2333 40.2829 25.7465 40.0525 26.2597C39.837 26.7283 39.6586 27.2192 39.4059 27.6729C38.908 28.5952 38.3803 29.4877 37.7189 30.3059C37.1838 30.9604 36.6487 31.6149 36.0541 32.2174C35.4447 32.8273 34.761 33.3331 34.107 33.8835C33.5644 34.3446 32.9625 34.7016 32.3605 35.081C31.9294 35.3562 31.5058 35.6314 31.045 35.8471C30.6809 36.0181 30.3167 36.2115 29.9674 36.3528C29.7816 36.4421 29.6627 36.4793 29.4249 36.576C28.8675 36.7768 28.3918 36.9627 27.879 37.1189C27.225 37.2975 26.6082 37.4239 25.9765 37.5801C25.263 37.7586 24.5198 37.885 23.7766 37.9222C22.647 37.9817 21.5173 38.0487 20.3877 38.0264C19.7039 38.0115 19.0202 37.9074 18.3439 37.8107C17.5859 37.6991 16.8501 37.4908 16.1218 37.2751C15.4752 37.0818 14.8286 36.8661 14.2415 36.509C14.0483 36.39 13.8253 36.3305 13.6172 36.2338C12.9112 35.9066 12.2275 35.5198 11.566 35.1107C11.2836 34.9397 11.0235 34.724 10.7485 34.5454C10.3769 34.3074 10.0276 34.0397 9.69317 33.7645C8.84593 33.0802 8.06558 32.3215 7.32239 31.5257C6.83932 31.005 6.42313 30.4323 5.99208 29.8745C5.29348 28.9745 4.75096 27.9704 4.25302 26.944C3.77738 25.9696 3.39835 24.9655 3.05648 23.9465C2.90784 23.5002 2.78893 23.0465 2.67002 22.6003C2.61057 22.3771 2.55854 22.1242 2.49909 21.8937C2.44707 21.6631 2.37275 21.4474 2.37275 21.2094C2.37275 21.1052 2.32815 21.0755 2.23897 21.0681C1.20594 20.9491 0.685704 20.2276 0.284382 19.3797C0.0539926 18.8888 -0.0128945 18.3458 0.00196931 17.8028C0.0539926 16.2706 0.782319 15.1698 2.17209 14.5153C2.58827 14.3219 3.00446 14.1211 3.44294 14.017C3.94088 13.898 4.44625 13.7715 4.94418 13.6525C5.42726 13.5335 5.9029 13.3848 6.38597 13.3029C6.80959 13.2286 7.22578 13.1244 7.6494 13.0724C8.34056 12.9831 9.03173 12.8939 9.7229 12.8492C10.5553 12.7972 11.3802 12.8269 12.2052 12.9459C12.6808 13.0129 13.1564 13.0277 13.6321 13.1096C14.3307 13.236 15.0293 13.3624 15.7056 13.5633C16.8873 13.9054 18.0392 14.3294 19.1391 14.8872C19.8674 15.2591 20.5437 15.7054 21.1309 16.2706C21.8369 16.9549 22.5355 17.6615 22.9443 18.5838C23.1821 19.1193 23.3456 19.6846 23.4348 20.2573C23.5611 21.0309 23.7618 21.7672 24.3117 22.3622C24.6536 22.7267 25.1069 22.9126 25.5677 23.0688C27.3216 23.6639 29.1053 23.5969 30.8815 23.2548C31.9814 23.0465 33.0814 22.8308 34.1441 22.4515C34.865 22.1986 35.5785 21.9457 36.2697 21.6259C36.7973 21.3804 37.2804 21.0532 37.7932 20.8003C38.3803 20.5102 38.8783 20.1309 39.3465 19.6921C39.6512 19.402 39.8221 19.0598 39.7924 18.6136C39.7627 18.0929 39.837 17.5574 39.7404 17.0442C39.6437 16.5235 39.5917 16.0029 39.4505 15.4897C39.2721 14.85 39.0789 14.2252 38.8708 13.593C38.5438 12.5963 38.083 11.6592 37.5628 10.7443C37.4588 10.5584 37.325 10.3873 37.2804 10.179C37.2581 10.0749 37.1541 9.98565 37.0351 9.97822C36.9311 9.96334 36.8791 10.06 36.8345 10.1493C36.6338 10.5807 36.2994 10.8931 35.9278 11.1683C35.7494 11.3022 35.7494 11.4509 35.8014 11.6145C36.0021 12.2542 36.2251 12.879 36.4034 13.5261C36.5372 14.0244 36.7304 14.5227 36.8048 15.0434C36.8642 15.4822 36.8865 15.3483 36.946 16.0401C36.998 16.5756 37.0128 17.1781 37.0351 17.8921C37.0649 18.5317 37.0649 19.1193 37.0723 19.7367C37.0723 19.8929 37.0203 19.9896 36.8865 20.0714C36.4777 20.3317 36.0244 20.5028 35.5711 20.7036C35.4967 20.6218 35.5339 20.5251 35.5339 20.4358C35.5711 19.454 35.5265 18.4797 35.4076 17.5053C35.3184 16.7764 35.3184 16.0252 35.088 15.3335C34.917 14.8203 34.8873 14.2847 34.6867 13.779C34.5232 13.3848 34.434 12.9534 34.2705 12.5517C34.1962 12.3658 34.1144 12.3955 33.9806 12.4773C33.2151 12.9682 32.4051 13.3624 31.543 13.6451C31.3274 13.7195 31.0971 13.7715 30.8741 13.8236C30.7478 13.8533 30.7403 13.8608 30.7552 14.0393C30.7552 14.0839 30.7552 14.136 30.7626 14.1806C30.9038 15.8467 31.045 17.5202 30.9633 19.1937C30.941 19.6102 30.8964 20.0268 30.8741 20.4507C30.8518 20.83 30.8369 21.135 30.7701 21.4995C30.7255 21.7226 30.7329 21.8118 30.6809 21.9755C30.6809 22.0647 30.614 22.035 30.5694 22.035C30.064 22.035 29.5661 22.1614 29.0756 22.2507C28.9195 22.2804 28.8898 22.2358 28.9269 22.0945C29.083 21.4251 29.0458 20.7334 29.1127 20.0491C29.2316 18.8069 29.1648 17.5648 29.1425 16.3227C29.1276 15.6979 29.0236 15.0806 28.9641 14.4632C28.9492 14.307 28.8526 14.3145 28.7411 14.3294C27.9236 14.4856 27.0838 14.4856 26.2589 14.4707C25.0698 14.4484 23.8955 14.307 22.7213 14.0839C21.5842 13.8682 20.4769 13.5633 19.3769 13.2434C18.8418 13.0872 18.3142 12.8939 17.7791 12.7302C17.2811 12.5815 16.7832 12.4327 16.2853 12.3063C15.9583 12.2244 15.6164 12.2021 15.2894 12.1203C15.0739 12.0683 14.8806 11.9716 14.6651 11.9195C12.9186 11.5327 11.1573 11.384 9.38103 11.5253C8.08788 11.6294 6.7873 11.7484 5.53131 12.1129C4.94418 12.2839 4.3645 12.4922 3.76994 12.6856C3.79967 11.979 4.16383 11.4063 4.45368 10.8038C4.84014 10.008 5.32321 9.26418 5.82858 8.54271C6.03667 8.2452 6.28936 7.97743 6.51232 7.69479C6.87648 7.21877 7.27037 6.7725 7.67913 6.33367C8.11018 5.87252 8.57839 5.44856 9.03173 5.01717C9.3736 4.69734 9.7006 4.3552 10.0945 4.09487C10.6296 3.73786 11.1275 3.33621 11.6849 3.00895C12.443 2.55524 13.2382 2.16847 14.0111 1.74451C14.6057 1.42468 15.2522 1.24617 15.8765 1.00073C16.7609 0.651146 17.6899 0.457762 18.6189 0.286691C20.0458 0.0338042 21.4802 -0.0480122 22.9294 0.0263663C23.8658 0.0784313 24.7948 0.189999 25.7238 0.36107C27.5669 0.710649 29.3357 1.2908 31.0004 2.16103C31.8328 2.59243 32.6429 3.07589 33.3861 3.66348C33.6908 3.90893 33.9955 4.10975 34.3374 4.37751C34.8204 4.73453 35.2143 5.1213 35.6156 5.53782C36.3886 6.3411 37.1095 7.19646 37.7858 8.08156C38.3506 8.81791 38.8262 9.59889 39.2721 10.417C39.5843 10.9898 39.7552 11.6071 39.993 12.2021C40.2532 12.8418 40.4613 13.4219 40.647 14.1509C40.7585 14.5897 40.8254 14.9988 40.9146 15.4227C41.0038 15.8392 41.0707 16.2632 41.0781 16.6946C41.0781 16.8582 41.1376 16.9029 41.2862 16.9029C42.1111 16.9029 42.676 17.3491 43.1442 17.9813C43.6421 18.6508 43.7313 19.4094 43.6198 20.1978C43.5826 20.4656 43.4266 20.7259 43.3077 20.9788C43.0847 21.4251 42.728 21.7672 42.3712 22.1019C42.1483 22.3102 41.8807 22.4664 41.6206 22.6226C41.2416 22.8531 40.8477 23.0763 40.4613 23.292C39.4579 23.8498 38.41 24.3184 37.3027 24.6234C36.2176 24.9209 35.1251 25.1589 34.0252 25.3895C33.6536 25.4638 33.2597 25.5233 32.8881 25.5903C32.5834 25.6423 32.2862 25.687 31.9814 25.7167C31.7734 25.739 31.8254 25.7316 31.7139 25.7465C30.7403 25.8283 29.8485 26.0142 28.8823 26.0514C27.9459 26.0812 27.0021 26.0663 26.0657 25.9101C25.3596 25.7911 24.6536 25.6647 23.9847 25.382C22.9814 24.9581 22.1342 24.3333 21.4281 23.5002C20.789 22.7416 20.5883 21.8193 20.4174 20.8821C20.1722 19.4689 19.533 18.2937 18.3513 17.4384C17.8757 17.0962 17.3926 16.7764 16.8724 16.5161C16.2704 16.2111 15.6238 16.0178 14.9624 15.8616C14.405 15.7277 13.855 15.5715 13.2902 15.5045C12.0045 15.3558 10.7188 15.3558 9.44792 15.5492C8.57095 15.6831 7.69399 15.869 6.86905 16.1888C6.00695 16.5235 5.17457 16.9177 4.55029 17.6392C3.97061 18.3086 3.8294 19.097 3.96317 19.9449C4.11924 20.9267 4.26788 21.9085 4.58745 22.8531C5.07053 24.311 5.67251 25.7167 6.54204 26.996C6.73527 27.2787 6.74271 27.2861 6.99539 27.0853C7.65683 26.5572 8.3257 26.0291 9.05403 25.5977C9.15064 25.5382 9.15807 25.4861 9.12835 25.3895C9.03173 25.0622 8.92025 24.7349 8.85337 24.4077C8.73446 23.8424 8.58582 23.2845 8.47434 22.7193C8.39259 22.3027 8.348 21.8788 8.23652 21.4697C8.11761 21.016 8.11761 20.54 8.08788 20.0714C8.04329 19.3573 8.00613 18.6433 8.02843 17.9293C8.02843 17.7285 8.08045 17.6466 8.31084 17.602C8.75675 17.5202 9.1878 17.3789 9.61885 17.245C9.78235 17.1929 9.83438 17.2152 9.83438 17.3938C9.83438 17.9665 9.83438 18.5466 9.87897 19.1193C9.9087 19.6251 9.98302 20.1234 10.0499 20.6218C10.1465 21.3879 10.2729 22.1465 10.4289 22.9052C10.5404 23.463 10.7336 23.9986 10.9194 24.5415C10.9789 24.7126 11.0978 24.6234 11.1647 24.6085C11.462 24.549 11.7667 24.482 12.0565 24.3853C12.6511 24.1845 13.2605 24.0878 13.8773 23.9986C14.5239 23.9019 15.1705 23.8201 15.8245 23.8498C15.8839 23.8498 15.9434 23.8573 16.0029 23.8498C16.1069 23.8424 16.2481 23.9614 16.3076 23.8498C16.3596 23.7531 16.2258 23.6564 16.1738 23.5597C15.7725 22.8531 15.438 22.1168 15.1853 21.3507C14.9698 20.6962 14.6948 20.0491 14.6948 19.3425C14.6948 18.8516 15.0218 18.5392 15.5124 18.5392C15.988 18.5392 16.4413 18.5764 16.8873 18.7698C17.4149 19.0003 17.6379 19.4243 17.7642 19.9524C18.0169 21.0309 18.3513 22.0722 18.8864 23.0465C19.5256 24.1994 20.3877 25.1514 21.5173 25.8283C22.4463 26.3936 23.4496 26.7878 24.5273 27.0407C25.813 27.3456 27.1061 27.472 28.4216 27.4125C29.4992 27.3679 30.5768 27.301 31.647 27.1894C32.2713 27.1225 32.8881 27.0035 33.4976 26.8547C33.9806 26.7357 34.4786 26.7134 34.9542 26.5944C35.9724 26.3341 37.0128 26.1258 38.0013 25.7465C38.8114 25.4415 39.614 25.1068 40.3646 24.668C40.4092 24.6457 40.4538 24.6308 40.5356 24.5936V24.6085ZM27.6189 12.7079C27.827 12.7079 28.0277 12.7079 28.2358 12.7079C28.5231 12.7079 28.6173 12.579 28.5182 12.3211C28.5033 12.284 28.5033 12.2393 28.4885 12.1947C28.1837 11.1162 27.9534 10.0228 27.5669 8.96667C26.9203 7.19646 26.1623 5.49319 24.9955 3.99818C24.609 3.50728 24.2597 2.98663 23.7469 2.6073C23.3084 2.28747 22.5132 2.28004 22.0896 2.6073C21.3687 3.16514 20.7518 3.81967 20.1647 4.51139C19.2952 5.55269 18.6412 6.713 18.1581 7.97743C17.846 8.80303 17.6899 9.67326 17.4298 10.5137C17.3852 10.6625 17.4298 10.722 17.5636 10.7518C17.8162 10.8113 18.0764 10.8708 18.329 10.9451C19.258 11.2203 20.187 11.4955 21.1383 11.7038C21.3315 11.7484 21.5025 11.8377 21.6957 11.8674C22.149 11.9418 22.6024 12.0311 23.0483 12.1426C23.8509 12.3286 24.6759 12.455 25.486 12.5666C26.192 12.6633 26.9055 12.7377 27.6264 12.693L27.6189 12.7079ZM16.9244 26.5274C16.9095 27.1968 17.0805 27.9481 17.2737 28.6844C17.4446 29.3241 17.6527 29.9489 17.8757 30.5736C18.2473 31.6001 18.7081 32.5744 19.3026 33.4818C19.8451 34.3 20.4694 35.0661 21.1829 35.7504C21.5248 36.0776 21.9038 36.3008 22.3943 36.0851C22.6172 35.9884 22.8253 35.8619 23.0483 35.7578C23.5908 35.4975 24.0367 35.0958 24.4306 34.657C24.8914 34.1512 25.3299 33.6306 25.7089 33.0579C26.0062 32.619 26.2886 32.1802 26.5264 31.7116C26.898 30.9753 27.1953 30.2092 27.4257 29.4133C27.4926 29.1828 27.3885 29.1381 27.1953 29.1456C26.0062 29.2125 24.8394 28.9968 23.6726 28.8555C22.8253 28.7514 22.0004 28.4985 21.2201 28.1489C19.9938 27.6059 18.9013 26.8473 17.9203 25.9324C17.8014 25.8208 17.675 25.7688 17.5041 25.7837C16.8947 25.8208 16.8947 25.8134 16.9095 26.5349L16.9244 26.5274ZM11.3876 9.81458C11.9153 9.8369 12.443 9.82946 12.9706 9.85921C13.7213 9.8964 14.4422 10.0526 15.1705 10.2088C15.4752 10.2757 15.4901 10.2683 15.5049 9.97078C15.5049 9.8964 15.5124 9.81458 15.5272 9.7402C15.6907 9.0113 15.8914 8.29726 16.1515 7.5981C16.7981 5.87252 17.675 4.30313 19.0053 3.00895C19.1986 2.823 19.3992 2.65193 19.5925 2.47342C19.6371 2.43623 19.6965 2.3916 19.6519 2.32466C19.6222 2.28004 19.5627 2.30235 19.5107 2.30979C19.3472 2.3321 19.1911 2.35441 19.0276 2.3916C17.7642 2.67424 16.5157 3.00895 15.3414 3.55935C14.4645 3.96843 13.6024 4.42214 12.8294 4.99485C11.8484 5.72376 10.9492 6.54937 10.1465 7.48654C9.52224 8.21544 8.92768 8.95923 8.42975 9.77739C8.40002 9.82202 8.36286 9.85921 8.38516 9.91871C8.41488 9.98565 8.46691 9.94846 8.51893 9.94846C9.47765 9.91871 10.4289 9.76996 11.3876 9.82202V9.81458ZM30.5917 12.1203C30.7329 12.0831 30.8741 12.0534 31.0153 12.0162C31.8105 11.7931 32.5314 11.3914 33.2449 10.9898C33.4158 10.8931 33.4232 10.8187 33.3563 10.6476C32.9327 9.65839 32.3382 8.77328 31.8031 7.85099C31.2011 6.82457 30.5248 5.84277 29.7667 4.92791C29.5809 4.70478 29.4174 4.46677 29.2465 4.22875C29.1648 4.10975 28.6965 3.53703 28.6074 3.49984C27.9979 3.23208 27.6115 3.18745 26.9872 2.95688C26.9352 2.93457 26.8683 2.8825 26.8237 2.95688C26.7865 3.01638 26.8386 3.06845 26.8683 3.12051C27.2176 3.78248 27.5743 4.44445 27.9162 5.10642C28.3398 5.91715 28.6965 6.76506 29.0236 7.62042C29.5661 9.03361 29.9525 10.4989 30.3985 11.9492C30.4356 12.0608 30.4579 12.1501 30.5991 12.1352L30.5917 12.1203ZM34.8353 27.9332C34.5603 27.9481 34.2705 28.1117 33.9509 28.1861C33.3043 28.3423 32.6503 28.491 31.9963 28.61C31.268 28.7365 30.5248 28.8183 29.789 28.915C29.6776 28.9299 29.5958 28.9373 29.5735 29.0786C29.4546 29.7555 29.1871 30.3877 28.9492 31.0273C28.4959 32.262 27.8047 33.4967 27.1879 34.538C27.1581 34.5975 27.0987 34.6719 27.1358 34.7165C27.1581 34.7463 27.2473 34.7165 27.3068 34.6868C27.8642 34.419 28.429 34.2033 28.9715 33.8909C29.8857 33.3628 30.718 32.7306 31.5058 32.0463C32.4051 31.2654 33.1928 30.3802 33.9583 29.4654C34.3299 29.0266 34.6718 28.5729 34.9542 28.082C34.9765 28.0448 35.0062 28.0076 34.9839 27.9629C34.9616 27.9109 34.9245 27.9183 34.8279 27.9406L34.8353 27.9332ZM15.0144 26.5572C15.0144 26.3564 15.007 26.163 15.0144 25.9622C15.0218 25.806 14.9698 25.739 14.8063 25.7613C14.4942 25.806 14.1746 25.8134 13.8625 25.8729C13.4834 25.9473 13.1118 26.1258 12.7328 26.1332C12.3687 26.1332 12.0639 26.3043 11.7221 26.3489C11.6032 26.3638 11.5586 26.4233 11.6403 26.5572C11.7815 26.8026 11.8856 27.063 11.9971 27.3233C12.5173 28.5357 13.149 29.6737 13.9591 30.715C14.5834 31.5182 15.2076 32.329 15.9954 32.9835C16.1738 33.1323 16.3076 33.3331 16.4934 33.4521C16.7163 33.5934 16.9095 33.7645 17.1251 33.9132C17.296 34.0322 17.4149 34.1959 17.5933 34.3C17.6379 34.3298 17.7048 34.3818 17.7494 34.3074C17.7791 34.2628 17.7419 34.2107 17.7048 34.1736C17.5933 34.0694 17.4818 33.9727 17.4001 33.8389C17.1994 33.5042 16.9913 33.1694 16.8129 32.8124C16.1664 31.5703 15.609 30.2984 15.3266 28.9224C15.1631 28.1415 15.007 27.3605 15.0218 26.5646L15.0144 26.5572ZM16.7089 35.0735C16.367 34.8802 16.04 34.7611 15.7353 34.5826C14.8286 34.0397 13.9962 33.3926 13.2976 32.6116C12.6288 31.8678 11.9599 31.124 11.4397 30.2612C11.2539 29.9563 10.9938 29.696 10.8303 29.3761C10.5181 28.7514 10.2283 28.1117 9.94586 27.4795C9.8864 27.3382 9.85667 27.3233 9.71547 27.42C9.06146 27.8514 8.46691 28.3423 7.91695 28.8927C7.79804 29.0117 7.82033 29.0712 7.91695 29.1828C8.45204 29.8075 8.99457 30.4174 9.58169 30.9976C10.1985 31.6001 10.8377 32.1728 11.5214 32.6934C11.9822 33.0504 12.5099 33.3033 13.0004 33.6157C13.4686 33.9132 13.9219 34.2107 14.4496 34.4041C14.955 34.5901 15.4455 34.8206 15.9508 34.9992C16.1664 35.0735 16.3967 35.2223 16.7015 35.081L16.7089 35.0735ZM32.8138 6.11797C33.3786 6.95101 33.9732 7.76174 34.4265 8.66172C34.59 8.98154 34.7164 9.32368 34.9319 9.62864C35.0062 9.73277 35.0583 9.75508 35.1474 9.65839C35.3555 9.42038 35.5562 9.17493 35.7792 8.95179C35.9501 8.78072 35.9278 8.6394 35.8014 8.46089C35.3704 7.85099 34.8576 7.30059 34.3151 6.80225C33.5273 6.08822 31.6322 4.4147 31.8328 4.78659" fill="white"/>
<g id="Group_2">
<path id="Vector_2" d="M74.9452 17.4384C75.837 18.6062 76.283 20.0491 76.283 21.7524C76.283 24.1697 75.3465 26.0292 73.4663 27.3308C71.586 28.6324 68.8511 29.2795 65.254 29.2795H50.9922V1.6925H64.4662C67.8254 1.6925 70.4043 2.3396 72.2028 3.62635C74.0014 4.9131 74.9006 6.66099 74.9006 8.87003C74.9006 10.2088 74.5811 11.4063 73.9345 12.4551C73.2879 13.5038 72.3886 14.3369 71.2367 14.9393C72.8123 15.4377 74.046 16.2707 74.9378 17.4459L74.9452 17.4384ZM57.339 6.49736V13.0055H63.6784C65.254 13.0055 66.4505 12.7303 67.2606 12.1799C68.0707 11.6295 68.4795 10.8113 68.4795 9.73283C68.4795 8.65434 68.0707 7.84361 67.2606 7.30808C66.4431 6.77256 65.254 6.49736 63.6784 6.49736H57.339ZM68.5835 23.6416C69.4382 23.0912 69.8618 22.2359 69.8618 21.0756C69.8618 18.7921 68.1673 17.6467 64.7784 17.6467H57.3316V24.4672H64.7784C66.458 24.4672 67.7288 24.192 68.5761 23.6416H68.5835Z" fill="white"/>
<path id="Vector_3" d="M97.434 10.1046C99.1954 11.6666 100.072 14.0244 100.072 17.178V29.2794H94.3201V26.639C93.1681 28.61 91.0129 29.5918 87.8618 29.5918C86.2342 29.5918 84.8221 29.3166 83.6256 28.7662C82.429 28.2158 81.5223 27.4497 80.8906 26.4828C80.2589 25.5084 79.9468 24.4076 79.9468 23.173C79.9468 21.2019 80.69 19.6548 82.1689 18.5243C83.6553 17.3937 85.9443 16.8285 89.0434 16.8285H93.9262C93.9262 15.4896 93.5174 14.4558 92.7074 13.7343C91.8898 13.0128 90.671 12.6484 89.0434 12.6484C87.9138 12.6484 86.8064 12.8269 85.7139 13.1839C84.6214 13.5409 83.6999 14.017 82.9344 14.6194L80.7271 10.3203C81.8791 9.50961 83.2688 8.8774 84.8816 8.43113C86.4943 7.98485 88.159 7.76172 89.8684 7.76172C93.1533 7.76172 95.6727 8.54269 97.434 10.1046ZM92.1946 24.7275C93.0046 24.244 93.5843 23.5225 93.9262 22.5779V20.4061H89.7123C87.1929 20.4061 85.9295 21.2317 85.9295 22.8903C85.9295 23.6787 86.2416 24.3035 86.8584 24.7647C87.4753 25.2258 88.3225 25.4564 89.4002 25.4564C90.4778 25.4564 91.3845 25.2109 92.1946 24.7275Z" fill="white"/>
<path id="Vector_4" d="M115.1 8.55013C116.348 8.02204 117.783 7.76172 119.41 7.76172V13.4368C118.727 13.3847 118.266 13.355 118.035 13.355C116.274 13.355 114.899 13.8459 113.896 14.8351C112.9 15.8244 112.402 17.297 112.402 19.2681V29.2794H106.256V8.07411H112.127V10.8707C112.863 9.84432 113.851 9.07078 115.1 8.54269V8.55013Z" fill="white"/>
<path id="Vector_5" d="M138.124 28.2605C137.522 28.7068 136.779 29.0415 135.902 29.2646C135.025 29.4877 134.096 29.5993 133.122 29.5993C130.603 29.5993 128.655 28.9522 127.273 27.6655C125.898 26.3787 125.207 24.4821 125.207 21.9904V13.2807H121.937V8.55018H125.207V3.38831H131.353V8.55018H136.63V13.2807H131.353V21.916C131.353 22.8085 131.584 23.5003 132.044 23.9837C132.505 24.4672 133.152 24.7126 133.992 24.7126C134.965 24.7126 135.79 24.4523 136.474 23.9242L138.131 28.2605H138.124Z" fill="white"/>
<path id="Vector_6" d="M162.188 20.4135H146.158C146.448 21.73 147.131 22.7639 148.209 23.53C149.287 24.2961 150.624 24.6754 152.23 24.6754C153.33 24.6754 154.311 24.5118 155.165 24.1845C156.02 23.8572 156.815 23.3366 157.551 22.63L160.821 26.1779C158.822 28.4613 155.908 29.6067 152.074 29.6067C149.68 29.6067 147.57 29.1381 145.734 28.2084C143.898 27.2787 142.479 25.977 141.483 24.3258C140.487 22.6672 139.989 20.7928 139.989 18.6879C139.989 16.583 140.48 14.7384 141.468 13.0724C142.457 11.4063 143.802 10.1047 145.526 9.16748C147.243 8.23775 149.168 7.76917 151.293 7.76917C153.419 7.76917 155.247 8.21544 156.927 9.10798C158.606 10.0005 159.929 11.2798 160.888 12.9534C161.846 14.6194 162.322 16.5607 162.322 18.7698C162.322 18.8516 162.285 19.402 162.203 20.4284L162.188 20.4135ZM147.815 13.593C146.871 14.3814 146.292 15.4599 146.083 16.8285H156.518C156.31 15.4897 155.73 14.4186 154.786 13.6153C153.842 12.812 152.683 12.4104 151.323 12.4104C149.963 12.4104 148.759 12.8046 147.815 13.593Z" fill="white"/>
<path id="Vector_7" d="M175.878 8.55013C177.126 8.02204 178.561 7.76172 180.188 7.76172V13.4368C179.505 13.3847 179.044 13.355 178.814 13.355C177.052 13.355 175.677 13.8459 174.674 14.8351C173.678 15.8244 173.18 17.297 173.18 19.2681V29.2794H167.034V8.07411H172.905V10.8707C173.641 9.84432 174.629 9.07078 175.878 8.54269V8.55013Z" fill="white"/>
<path id="Vector_8" d="M184.484 0.0338135H190.63V29.2869H184.484V0.0338135Z" fill="white"/>
<path id="Vector_9" d="M218.002 8.0741L208.43 30.581C207.456 33.0281 206.26 34.7462 204.825 35.7429C203.391 36.7396 201.667 37.2379 199.645 37.2379C198.545 37.2379 197.453 37.0669 196.375 36.7247C195.298 36.3826 194.421 35.914 193.737 35.3041L195.981 30.9306C196.457 31.3546 196.999 31.6818 197.616 31.9199C198.233 32.1579 198.843 32.2769 199.445 32.2769C200.284 32.2769 200.968 32.0761 201.496 31.667C202.023 31.2579 202.492 30.581 202.915 29.6364L202.997 29.4431L193.819 8.0741H200.158L206.104 22.4589L212.094 8.0741H218.002Z" fill="white"/>
<path id="Vector_10" d="M51.765 36.9331C51.3785 36.5389 51.1853 35.9661 51.1853 35.2224V32.2621H51.9285V35.1926C51.9285 36.3083 52.419 36.8661 53.3926 36.8661C53.8682 36.8661 54.2324 36.7248 54.4851 36.4496C54.7377 36.1744 54.8641 35.7579 54.8641 35.1926V32.2621H55.585V35.2224C55.585 35.9736 55.3918 36.5389 55.0053 36.9331C54.6188 37.3273 54.0763 37.5206 53.3851 37.5206C52.694 37.5206 52.1514 37.3198 51.765 36.9256V36.9331Z" fill="white"/>
<path id="Vector_11" d="M61.5827 32.2621V37.4686H60.9732L57.8518 33.586V37.4686H57.1086V32.2621H57.7181L60.8395 36.1446V32.2621H61.5827Z" fill="white"/>
<path id="Vector_12" d="M63.1433 32.2621H63.8865V36.8215H66.7032V37.4686H63.1433V32.2621Z" fill="white"/>
<path id="Vector_13" d="M68.3903 37.1784C67.9667 36.9479 67.6397 36.628 67.4019 36.2189C67.1641 35.8099 67.0452 35.3562 67.0452 34.8578C67.0452 34.3595 67.1641 33.9058 67.4019 33.4967C67.6397 33.0876 67.9742 32.7752 68.3903 32.5372C68.814 32.3066 69.2822 32.1951 69.8098 32.1951C70.3375 32.1951 70.7983 32.3141 71.2219 32.5372C71.6455 32.7678 71.9725 33.0876 72.2103 33.4893C72.4482 33.8909 72.5671 34.352 72.5671 34.8504C72.5671 35.3487 72.4482 35.8099 72.2103 36.2115C71.9725 36.6132 71.6455 36.933 71.2219 37.1636C70.7983 37.3941 70.3301 37.5057 69.8098 37.5057C69.2896 37.5057 68.814 37.3867 68.3903 37.1636V37.1784ZM70.8354 36.5983C71.1401 36.4272 71.378 36.1892 71.5563 35.8842C71.7347 35.5793 71.8164 35.2371 71.8164 34.8578C71.8164 34.4785 71.7273 34.1438 71.5563 33.8314C71.378 33.5264 71.1401 33.2884 70.8354 33.1174C70.5307 32.9463 70.1889 32.857 69.8098 32.857C69.4308 32.857 69.0815 32.9463 68.7768 33.1174C68.4647 33.2884 68.2268 33.5264 68.0485 33.8314C67.8701 34.1363 67.7884 34.4785 67.7884 34.8578C67.7884 35.2371 67.8775 35.5719 68.0485 35.8842C68.2194 36.1966 68.4647 36.4272 68.7768 36.5983C69.0889 36.7693 69.4308 36.8586 69.8098 36.8586C70.1889 36.8586 70.5307 36.7693 70.8354 36.5983Z" fill="white"/>
<path id="Vector_14" d="M74.6181 37.1784C74.2019 36.9479 73.8749 36.628 73.6297 36.2264C73.3919 35.8248 73.2729 35.3636 73.2729 34.8653C73.2729 34.3669 73.3919 33.9058 73.6297 33.5041C73.8675 33.1025 74.1945 32.7827 74.6181 32.5521C75.0417 32.3215 75.51 32.21 76.0302 32.21C76.4389 32.21 76.8105 32.2769 77.145 32.4182C77.4794 32.5521 77.7693 32.7604 78.0071 33.0207L77.524 33.4893C77.1301 33.0802 76.647 32.8719 76.0599 32.8719C75.6735 32.8719 75.3242 32.9612 75.012 33.1323C74.6999 33.3033 74.4546 33.5413 74.2763 33.8463C74.0979 34.1512 74.0161 34.4934 74.0161 34.8727C74.0161 35.252 74.1053 35.5867 74.2763 35.8991C74.4472 36.2115 74.6999 36.4421 75.012 36.6132C75.3242 36.7842 75.6735 36.8735 76.0599 36.8735C76.6396 36.8735 77.1301 36.6652 77.524 36.2487L78.0071 36.7173C77.7693 36.9851 77.4794 37.1859 77.1375 37.3272C76.7957 37.4685 76.4241 37.5355 76.0228 37.5355C75.5025 37.5355 75.0343 37.4165 74.6181 37.1933V37.1784Z" fill="white"/>
<path id="Vector_15" d="M80.7719 35.1554L79.8206 36.1223V37.4686H79.0774V32.2621H79.8206V35.1703L82.6447 32.2621H83.4919L81.2698 34.605L83.6331 37.4686H82.7636L80.7719 35.1554Z" fill="white"/>
<path id="Vector_16" d="M87.4531 32.9092H85.6694V32.2621H89.9725V32.9092H88.1889V37.4686H87.4531V32.9092Z" fill="white"/>
<path id="Vector_17" d="M95.2567 32.2621V37.4686H94.5135V35.148H91.5259V37.4686H90.7827V32.2621H91.5259V34.5009H94.5135V32.2621H95.2567Z" fill="white"/>
<path id="Vector_18" d="M100.593 36.8215V37.4686H96.8174V32.2621H100.489V32.9092H97.5606V34.5083H100.169V35.1405H97.5606V36.8215H100.593Z" fill="white"/>
<path id="Vector_19" d="M107.415 32.7455C107.802 33.0654 107.995 33.5116 107.995 34.0769C107.995 34.6422 107.802 35.0885 107.415 35.4083C107.029 35.7281 106.501 35.8918 105.825 35.8918H104.539V37.4686H103.796V32.2621H105.825C106.501 32.2621 107.029 32.4257 107.415 32.7455ZM106.88 34.9471C107.125 34.7463 107.252 34.4563 107.252 34.0769C107.252 33.6976 107.125 33.4075 106.88 33.2067C106.635 33.0059 106.271 32.9017 105.803 32.9017H104.539V35.2372H105.803C106.271 35.2372 106.635 35.1405 106.88 34.9397V34.9471Z" fill="white"/>
<path id="Vector_20" d="M110.091 37.1784C109.667 36.9479 109.34 36.628 109.102 36.2189C108.865 35.8099 108.746 35.3562 108.746 34.8578C108.746 34.3595 108.865 33.9058 109.102 33.4967C109.34 33.0876 109.675 32.7752 110.091 32.5372C110.514 32.3066 110.983 32.1951 111.51 32.1951C112.038 32.1951 112.499 32.3141 112.922 32.5372C113.346 32.7678 113.673 33.0876 113.911 33.4893C114.149 33.8909 114.268 34.352 114.268 34.8504C114.268 35.3487 114.149 35.8099 113.911 36.2115C113.673 36.6132 113.346 36.933 112.922 37.1636C112.499 37.3941 112.03 37.5057 111.51 37.5057C110.99 37.5057 110.514 37.3867 110.091 37.1636V37.1784ZM112.536 36.5983C112.841 36.4272 113.078 36.1892 113.257 35.8842C113.435 35.5793 113.517 35.2371 113.517 34.8578C113.517 34.4785 113.428 34.1438 113.257 33.8314C113.078 33.5264 112.841 33.2884 112.536 33.1174C112.231 32.9463 111.889 32.857 111.51 32.857C111.131 32.857 110.782 32.9463 110.477 33.1174C110.165 33.2884 109.927 33.5264 109.749 33.8314C109.571 34.1363 109.489 34.4785 109.489 34.8578C109.489 35.2371 109.578 35.5719 109.749 35.8842C109.92 36.1966 110.165 36.4272 110.477 36.5983C110.789 36.7693 111.131 36.8586 111.51 36.8586C111.889 36.8586 112.231 36.7693 112.536 36.5983Z" fill="white"/>
<path id="Vector_21" d="M122.591 32.2621L120.852 37.4686H120.072L118.652 33.3108L117.233 37.4686H116.438L114.698 32.2621H115.464L116.869 36.4942L118.333 32.2621H119.016L120.451 36.5165L121.885 32.2621H122.591Z" fill="white"/>
<path id="Vector_22" d="M127.273 36.8215V37.4686H123.498V32.2621H127.169V32.9092H124.241V34.5083H126.85V35.1405H124.241V36.8215H127.273Z" fill="white"/>
<path id="Vector_23" d="M131.955 37.4686L130.833 35.8694C130.692 35.8769 130.588 35.8843 130.506 35.8843H129.22V37.4686H128.477V32.2621H130.506C131.183 32.2621 131.71 32.4257 132.097 32.7455C132.483 33.0654 132.676 33.5116 132.676 34.0769C132.676 34.4786 132.58 34.8207 132.379 35.1033C132.178 35.386 131.896 35.5942 131.532 35.7207L132.766 37.4686H131.955ZM131.562 34.9471C131.807 34.7463 131.933 34.4563 131.933 34.0769C131.933 33.6976 131.807 33.4075 131.562 33.2067C131.316 33.0059 130.952 32.9017 130.484 32.9017H129.22V35.2447H130.484C130.952 35.2447 131.316 35.1405 131.562 34.9397V34.9471Z" fill="white"/>
<path id="Vector_24" d="M136.808 37.1784C136.385 36.9479 136.058 36.628 135.82 36.2189C135.582 35.8099 135.463 35.3562 135.463 34.8578C135.463 34.3595 135.582 33.9058 135.82 33.4967C136.058 33.0876 136.392 32.7752 136.808 32.5372C137.232 32.3066 137.7 32.1951 138.228 32.1951C138.755 32.1951 139.216 32.3141 139.64 32.5372C140.063 32.7678 140.39 33.0876 140.628 33.4893C140.866 33.8909 140.985 34.352 140.985 34.8504C140.985 35.3487 140.866 35.8099 140.628 36.2115C140.39 36.6132 140.063 36.933 139.64 37.1636C139.216 37.3941 138.748 37.5057 138.228 37.5057C137.708 37.5057 137.232 37.3867 136.808 37.1636V37.1784ZM139.253 36.5983C139.558 36.4272 139.796 36.1892 139.974 35.8842C140.153 35.5793 140.234 35.2371 140.234 34.8578C140.234 34.4785 140.145 34.1438 139.974 33.8314C139.796 33.5264 139.558 33.2884 139.253 33.1174C138.949 32.9463 138.607 32.857 138.228 32.857C137.849 32.857 137.499 32.9463 137.195 33.1174C136.883 33.2884 136.645 33.5264 136.466 33.8314C136.288 34.1363 136.206 34.4785 136.206 34.8578C136.206 35.2371 136.296 35.5719 136.466 35.8842C136.637 36.1966 136.883 36.4272 137.195 36.5983C137.507 36.7693 137.849 36.8586 138.228 36.8586C138.607 36.8586 138.949 36.7693 139.253 36.5983Z" fill="white"/>
<path id="Vector_25" d="M142.865 32.9092V34.724H145.474V35.3637H142.865V37.4686H142.122V32.2621H145.793V32.9092H142.865Z" fill="white"/>
<path id="Vector_26" d="M152.616 36.8215V37.4686H148.841V32.2621H152.512V32.9092H149.584V34.5083H152.192V35.1405H149.584V36.8215H152.616Z" fill="white"/>
<path id="Vector_27" d="M157.031 37.4686L155.47 35.319L153.932 37.4686H153.077L155.031 34.7984L153.196 32.2621H154.043L155.5 34.2629L156.941 32.2621H157.752L155.916 34.7761L157.885 37.4686H157.031Z" fill="white"/>
<path id="Vector_28" d="M159.49 37.1784C159.074 36.9479 158.747 36.628 158.502 36.2264C158.264 35.8248 158.145 35.3636 158.145 34.8653C158.145 34.3669 158.264 33.9058 158.502 33.5041C158.74 33.1025 159.067 32.7827 159.49 32.5521C159.914 32.3215 160.382 32.21 160.903 32.21C161.311 32.21 161.683 32.2769 162.017 32.4182C162.352 32.5521 162.642 32.7604 162.879 33.0207L162.396 33.4893C162.002 33.0802 161.519 32.8719 160.932 32.8719C160.546 32.8719 160.196 32.9612 159.884 33.1323C159.572 33.3033 159.327 33.5413 159.149 33.8463C158.97 34.1512 158.888 34.4934 158.888 34.8727C158.888 35.252 158.978 35.5867 159.149 35.8991C159.32 36.2115 159.572 36.4421 159.884 36.6132C160.196 36.7842 160.546 36.8735 160.932 36.8735C161.512 36.8735 162.002 36.6652 162.396 36.2487L162.879 36.7173C162.642 36.9851 162.352 37.1859 162.01 37.3272C161.668 37.4685 161.296 37.5355 160.895 37.5355C160.375 37.5355 159.907 37.4165 159.49 37.1933V37.1784Z" fill="white"/>
<path id="Vector_29" d="M168.424 32.2621V37.4686H167.681V35.148H164.693V37.4686H163.95V32.2621H164.693V34.5009H167.681V32.2621H168.424Z" fill="white"/>
<path id="Vector_30" d="M173.299 36.167H170.534L169.962 37.4686H169.197L171.552 32.2621H172.288L174.652 37.4686H173.871L173.299 36.167ZM173.039 35.5719L171.917 33.0207L170.794 35.5719H173.039Z" fill="white"/>
<path id="Vector_31" d="M179.899 32.2621V37.4686H179.289L176.168 33.586V37.4686H175.425V32.2621H176.034L179.155 36.1446V32.2621H179.899Z" fill="white"/>
<path id="Vector_32" d="M185.064 34.8355H185.777V36.8661C185.517 37.0818 185.22 37.2454 184.878 37.357C184.536 37.4685 184.179 37.528 183.808 37.528C183.28 37.528 182.812 37.409 182.388 37.1859C181.965 36.9553 181.638 36.6355 181.4 36.2338C181.162 35.8322 181.043 35.3711 181.043 34.8727C181.043 34.3744 181.162 33.9132 181.4 33.5041C181.638 33.0951 181.972 32.7827 182.396 32.5521C182.819 32.3215 183.295 32.21 183.83 32.21C184.246 32.21 184.625 32.2769 184.96 32.4182C185.294 32.5595 185.584 32.7529 185.829 33.0133L185.368 33.4744C184.952 33.0728 184.447 32.8719 183.86 32.8719C183.466 32.8719 183.109 32.9612 182.797 33.1323C182.485 33.3033 182.24 33.5413 182.054 33.8463C181.868 34.1512 181.786 34.4934 181.786 34.8727C181.786 35.252 181.875 35.5867 182.054 35.8991C182.232 36.2115 182.477 36.4421 182.797 36.6132C183.109 36.7842 183.466 36.8735 183.852 36.8735C184.32 36.8735 184.722 36.7619 185.071 36.5388V34.843L185.064 34.8355Z" fill="white"/>
<path id="Vector_33" d="M190.972 36.8215V37.4686H187.197V32.2621H190.868V32.9092H187.94V34.5083H190.549V35.1405H187.94V36.8215H190.972Z" fill="white"/>
</g>
</g>
</g>
</svg>
